<svg xmlns="http://www.w3.org/2000/svg" width="249.57" height="94.25" viewBox="0 0 249.57 94.25">
  <path id="パス_39" data-name="パス 39" d="M-99.54,1.62l-.48-26.16h8.52v2.28l-5.22.66V1.62Zm18.3-21.48a30.586,30.586,0,0,1-3,2.37A32.637,32.637,0,0,1-87.3-15.6l-1.2-1.77a22.111,22.111,0,0,0,3.675-3.48,22.64,22.64,0,0,0,2.655-3.9l4.56.9q-.27.39-.57.765t-.63.765l15.48-.99v3.45Zm-.9,3.87-.6-1.95,18.24-1.2v3.15ZM-63.42,2.19A8.889,8.889,0,0,1-67.035-.6,12.288,12.288,0,0,1-69.09-4.8a18.254,18.254,0,0,1-.66-4.92v-1.86H-87.18l-.6-2.31,21.69-1.2v5.01a13.42,13.42,0,0,0,.6,4.305A6.619,6.619,0,0,0-63.96-3.12l1.32-2.07,1.14.66Zm-8.76-.54Q-73.53.45-74.94-.72T-77.79-3A39.491,39.491,0,0,1-81.87-.36a46.989,46.989,0,0,1-4.26,2.13L-87.12,0a34.771,34.771,0,0,0,3.54-2.265q1.71-1.245,3.3-2.655Q-83.22-7.14-86.04-9l1.14-1.44q1.59.75,3.285,1.635T-78.18-6.93a55.409,55.409,0,0,0,3.81-4.35L-71.19-9q-.87,1.02-1.86,1.98t-2.04,1.89q1.41.84,2.775,1.725T-69.66-1.59Zm23.94-3.21a15.065,15.065,0,0,1-1.4,1.215A14.293,14.293,0,0,1-51.06.57a10.4,10.4,0,0,1-1.47.69,3.546,3.546,0,0,1-1.2.24q-1.98,0-2.34-3.54-.18-1.68-.255-3.795T-56.4-10.2q0-2.31.075-4.605t.195-4.35q.12-2.055.27-3.645l4.32.45q-.27,1.62-.495,3.675t-.39,4.26q-.165,2.205-.255,4.3t-.09,3.84V-5.2q0,.495.03.945a4.007,4.007,0,0,0,.24,1.4.677.677,0,0,0,.66.345h.255a1.048,1.048,0,0,0,.255-.03,5.208,5.208,0,0,0,2.16-1.02Zm1.86-15.21-.93-2.61,13.47-1.56v4.17ZM-33.24-.87a73.019,73.019,0,0,1-8.715-.51A12.054,12.054,0,0,1-46.71-2.79a2.9,2.9,0,0,1-1.47-2.52,5.69,5.69,0,0,1,.435-2.025A19.4,19.4,0,0,1-46.53-9.84l2.25.54q-.21.63-.375,1.17a3.333,3.333,0,0,0-.165.96,1.606,1.606,0,0,0,.645,1.32,4.891,4.891,0,0,0,2.22.75,30.924,30.924,0,0,0,4.4.24q1.05,0,2.25-.03t2.58-.09Zm13.56-15.57L-25.56-5.58l-2.67-.66,4.62-10.2h-3.21l-.84-2.52,5.43-.57,2.31-5.1,3.99,1.23-1.83,3.39,3.9-.42v3.99Zm16.98-.93a3,3,0,0,1-.9,2.175,2.956,2.956,0,0,1-2.19.915,2.971,2.971,0,0,1-2.175-.915A2.971,2.971,0,0,1-8.88-17.37a2.956,2.956,0,0,1,.915-2.19,3,3,0,0,1,2.175-.9,2.981,2.981,0,0,1,2.19.9A2.981,2.981,0,0,1-2.7-17.37ZM-6.12-.18A16.644,16.644,0,0,0-8.1-1.44q-1.05-.57-2.1-1.05A7.725,7.725,0,0,1-11.265.45a3.642,3.642,0,0,1-1.68,1.4,6.106,6.106,0,0,1-2.2.375,8.182,8.182,0,0,1-3-.6A9.068,9.068,0,0,1-20.94-.12a7.922,7.922,0,0,1-1.95-2.7,3.309,3.309,0,0,1-.3-1.32,2.683,2.683,0,0,1,1.44-2.34,7.377,7.377,0,0,1,3.93-.9,14.957,14.957,0,0,1,1.59.09q1.26.12,2.7.36-.03-1.29-.105-2.745t-.165-2.76q-.09-1.3-.18-2.145l4.26.48v1.8q0,1.35-.015,3.015t-.1,3.165q1.41.36,2.85.885A29.365,29.365,0,0,1-4.14-4.02Zm-7.44-3.63q-.96-.33-1.845-.54a15.173,15.173,0,0,0-1.605-.3q-.21-.03-.405-.045t-.375-.015a1.607,1.607,0,0,0-.975.225.773.773,0,0,0-.285.645,1.426,1.426,0,0,0,.06.39q.06.21.15.45a3.513,3.513,0,0,0,1.455,1.59,3.725,3.725,0,0,0,1.9.63,2.716,2.716,0,0,0,.945-.15,1.219,1.219,0,0,0,.645-.78A7.856,7.856,0,0,0-13.56-3.81ZM15.9-1.92a10.405,10.405,0,0,0-2.295-1.95,4.554,4.554,0,0,0-2.385-.72,2.1,2.1,0,0,0-1.29.36,1.4,1.4,0,0,0-.48,1.2,1.757,1.757,0,0,0,.9,1.455,3.843,3.843,0,0,0,2.22.615,10.416,10.416,0,0,0,4.44-.99,9.26,9.26,0,0,0,3.48-2.73,6.039,6.039,0,0,0,.93-1.635,4.607,4.607,0,0,0,.3-1.575,3.737,3.737,0,0,0-1.365-2.91A5.508,5.508,0,0,0,16.59-12a15.051,15.051,0,0,0-3.75.51,19.579,19.579,0,0,0-3.825,1.425A15.845,15.845,0,0,0,5.79-7.98L3.3-10.05,14.82-19.8H7.2l-.84-2.43,12.9-1.17,1.56,3.3-8.79,6.33a6.14,6.14,0,0,1,1.485-.525,14.521,14.521,0,0,1,1.71-.285,14.049,14.049,0,0,1,1.425-.09,12.857,12.857,0,0,1,5.145.9,7.078,7.078,0,0,1,3.09,2.4,5.686,5.686,0,0,1,1.035,3.3,7.256,7.256,0,0,1-.615,2.835A10.772,10.772,0,0,1,23.46-2.37,11.376,11.376,0,0,1,20.655-.165,16.072,16.072,0,0,1,16.89,1.38a15.973,15.973,0,0,1-4.26.57,8.279,8.279,0,0,1-3.585-.72A5.861,5.861,0,0,1,6.7-.66,4.289,4.289,0,0,1,5.88-3.18a4.156,4.156,0,0,1,1.455-3.3A5.545,5.545,0,0,1,11.1-7.74a6.83,6.83,0,0,1,2.25.42,9.149,9.149,0,0,1,2.34,1.245A8.252,8.252,0,0,1,17.67-4.02ZM49.95.06a11.768,11.768,0,0,0,2.175-2.6A6.276,6.276,0,0,0,53.07-5.19a1.385,1.385,0,0,1,.015-.2,1.385,1.385,0,0,0,.015-.2,2.59,2.59,0,0,0-1.365-2.46,7.284,7.284,0,0,0-3.525-.75,10.059,10.059,0,0,0-2.475.315,15.783,15.783,0,0,0-2.475.855V2.01L36.69.54V-1.5h3.24l-.18-4.14q-1.32.9-2.58,1.95t-2.4,2.16L32.22-5.1q1.83-1.14,3.69-2.2T39.6-9.21l-.3-6.57H34.29l-.93-2.52,5.82-.66-.24-5.49,4.29.75v4.26l5.1-.57v4.23h-5.1v5.13a22.858,22.858,0,0,1,2.655-.66,14.162,14.162,0,0,1,2.565-.24,12.547,12.547,0,0,1,6.525,1.38A4.5,4.5,0,0,1,57.21-6.09q0,.21-.015.435t-.045.465a6.482,6.482,0,0,1-1.455,3.375A14.567,14.567,0,0,1,51.87,1.29ZM58.08-16.2a2.956,2.956,0,0,1-.915,2.19,3,3,0,0,1-2.175.9,2.981,2.981,0,0,1-2.19-.9,2.981,2.981,0,0,1-.9-2.19,2.981,2.981,0,0,1,.9-2.19,2.981,2.981,0,0,1,2.19-.9,3,3,0,0,1,2.175.9A2.956,2.956,0,0,1,58.08-16.2ZM63.06,1.02,62.4-1.41l10.8-.51V-8.07H64.68l-.66-2.37,9.18-.51v-3.18h-6l-.48-1.71q-1.02.48-2.13.99T62.25-13.8l-.75-1.65a52.219,52.219,0,0,0,6.285-4.23A43.848,43.848,0,0,0,73.2-24.75l5.04,1.26-1.29,1.05q2.97,1.38,5.715,2.37T88.5-18.3l-1.53,4.26q-1.2-.57-2.28-1.14t-2.13-1.14v2.19H77.01l-.12,2.97,8.94-.48v3.57H76.77l-.24,6,3.66-.18-1.53-.84.255-.69q.255-.69.585-1.785t.57-2.265l4.35,1.65a25.478,25.478,0,0,1-1.86,2.355Q81.63-2.79,81.12-2.31l6.45-.3V1.02Zm17.4-18.54q-1.29-.78-2.6-1.635T75.15-21.03q-1.77,1.32-3.465,2.4T68.16-16.59ZM71.13-4.77a2.473,2.473,0,0,1-.78,1.8,2.505,2.505,0,0,1-1.83.78,2.473,2.473,0,0,1-1.8-.78,2.473,2.473,0,0,1-.78-1.8,2.457,2.457,0,0,1,.78-1.815,2.5,2.5,0,0,1,1.8-.765,2.53,2.53,0,0,1,1.83.765A2.457,2.457,0,0,1,71.13-4.77Zm39.21,3.6a28.234,28.234,0,0,0,2.85-4.6,11.14,11.14,0,0,0,1.17-4.965,6.8,6.8,0,0,0-1.02-3.825A6.459,6.459,0,0,0,110.5-16.92a10.418,10.418,0,0,0-4.275-.81,9.454,9.454,0,0,0-3.81.81,11.8,11.8,0,0,0-3.345,2.19,10.972,10.972,0,0,0-2.37,3.15,8.212,8.212,0,0,0-.885,3.72,3.035,3.035,0,0,0,.45,1.845,1.5,1.5,0,0,0,1.26.585,3.452,3.452,0,0,0,1.14-.21,10.85,10.85,0,0,0,2.9-1.665,26.332,26.332,0,0,0,3.09-2.82,32.066,32.066,0,0,0,2.835-3.45,23.478,23.478,0,0,0,2.1-3.525l2.22,1.74a30.217,30.217,0,0,1-2.295,4.245,34.509,34.509,0,0,1-3.12,4.14,24.369,24.369,0,0,1-3.66,3.42A13.686,13.686,0,0,1,98.79-1.44a7.38,7.38,0,0,1-2.28.39,4.009,4.009,0,0,1-3.57-1.8,8.114,8.114,0,0,1-1.2-4.59,10.818,10.818,0,0,1,.8-4.095,13.1,13.1,0,0,1,2.2-3.615,15.229,15.229,0,0,1,3.27-2.865,16.222,16.222,0,0,1,3.99-1.89,14.221,14.221,0,0,1,4.32-.675,16.651,16.651,0,0,1,6.51,1.155,9.387,9.387,0,0,1,4.2,3.285,8.7,8.7,0,0,1,1.47,5.07,11.434,11.434,0,0,1-.735,3.975,16.925,16.925,0,0,1-1.995,3.81A16.891,16.891,0,0,1,112.86-.06ZM-117.57,14.44a3.063,3.063,0,0,1-.975,2.31,3.252,3.252,0,0,1-2.325.93,3.186,3.186,0,0,1-2.325-.93,3.111,3.111,0,0,1-.945-2.31,3.21,3.21,0,0,1,.945-2.34,3.135,3.135,0,0,1,2.325-.96,3.147,3.147,0,0,1,1.65.45,3.49,3.49,0,0,1,1.2,1.185A3.124,3.124,0,0,1-117.57,14.44Zm-6.54,5.82a3.333,3.333,0,0,1-.465,1.74,3.5,3.5,0,0,1-1.26,1.245,3.413,3.413,0,0,1-1.755.465,3.328,3.328,0,0,1-2.445-1,3.328,3.328,0,0,1-1-2.445,3.328,3.328,0,0,1,1-2.445,3.328,3.328,0,0,1,2.445-1.005,3.413,3.413,0,0,1,1.755.465,3.5,3.5,0,0,1,1.26,1.245A3.333,3.333,0,0,1-124.11,20.26Zm17.7.81a48.644,48.644,0,0,1-5.79,5.355,66.258,66.258,0,0,1-7.11,4.845q-3.93,2.34-8.85,4.71l-2.91-4.8a48.4,48.4,0,0,0,8.535-2.7,50.576,50.576,0,0,0,7.815-4.125,51.5,51.5,0,0,0,6.78-5.2Zm24.75-3.12q-3.96-1.32-8.145-2.265A80.7,80.7,0,0,0-98.01,14.26l.51-2.52q3.93.12,8.28.615t8.52,1.185Zm-5.13,4.17a3.489,3.489,0,0,1-.48,1.785,3.587,3.587,0,0,1-1.29,1.3,3.464,3.464,0,0,1-1.8.48,3.489,3.489,0,0,1-1.785-.48,3.551,3.551,0,0,1-1.3-1.3,3.489,3.489,0,0,1-.48-1.785,3.464,3.464,0,0,1,.48-1.8,3.587,3.587,0,0,1,1.3-1.29,3.489,3.489,0,0,1,1.785-.48,3.464,3.464,0,0,1,1.8.48,3.624,3.624,0,0,1,1.29,1.29A3.464,3.464,0,0,1-86.79,22.12Zm6.6,14.07q-3.57-1.29-7.35-2.34t-7.425-1.815q-3.645-.765-6.825-1.185l.54-2.49q3.21.18,6.855.645t7.56,1.11q3.915.645,7.875,1.425Zm10.11-3.27-.63-2.34,12.81-.6,1.2-8.97H-67.11l-.51-2.31,15.15-.99-2.55,12.15,5.73-.27v3.33Zm52.26-10.08a48.328,48.328,0,0,1-7.32,6.6,71.761,71.761,0,0,1-9.96,6.18l-3.18-1.5V10.18l4.53.6-.72,19.47a38.2,38.2,0,0,0,5.055-2.37,57.886,57.886,0,0,0,5.295-3.33,61.124,61.124,0,0,0,5.01-3.93Zm7.02,2.34L-12,20.8H11.79v3.03ZM32.43,14.44a3.063,3.063,0,0,1-.975,2.31,3.252,3.252,0,0,1-2.325.93,3.186,3.186,0,0,1-2.325-.93,3.111,3.111,0,0,1-.945-2.31,3.21,3.21,0,0,1,.945-2.34,3.277,3.277,0,0,1,3.975-.51,3.49,3.49,0,0,1,1.2,1.185A3.124,3.124,0,0,1,32.43,14.44Zm-6.54,5.82A3.333,3.333,0,0,1,25.425,22a3.5,3.5,0,0,1-1.26,1.245,3.413,3.413,0,0,1-1.755.465,3.458,3.458,0,0,1-2.445-5.895A3.328,3.328,0,0,1,22.41,16.81a3.413,3.413,0,0,1,1.755.465,3.5,3.5,0,0,1,1.26,1.245A3.333,3.333,0,0,1,25.89,20.26Zm17.7.81a48.644,48.644,0,0,1-5.79,5.355,66.257,66.257,0,0,1-7.11,4.845q-3.93,2.34-8.85,4.71l-2.91-4.8a48.4,48.4,0,0,0,8.535-2.7,50.576,50.576,0,0,0,7.815-4.125,51.5,51.5,0,0,0,6.78-5.2ZM65.1,35.11V33.13H52.11l-.51-2.28,13.5-.99V26.32H52.77l-.51-2.31,12.84-.87V19.66H52.32l-.51-2.28,16.92-1.02-.6,18.39Zm23.16-18.9a3.727,3.727,0,0,1-.51,1.92,3.842,3.842,0,0,1-1.365,1.38,3.9,3.9,0,0,1-3.855,0,3.8,3.8,0,0,1-1.38-1.38,3.9,3.9,0,0,1,0-3.855,3.842,3.842,0,0,1,1.38-1.365,3.9,3.9,0,0,1,3.855,0,3.88,3.88,0,0,1,1.365,1.365A3.7,3.7,0,0,1,88.26,16.21Zm14.88,4.47a48.622,48.622,0,0,1-5.7,5.295,61.551,61.551,0,0,1-6.93,4.71q-3.84,2.265-8.76,4.635l-2.91-4.8a47.26,47.26,0,0,0,8.46-2.745,53.593,53.593,0,0,0,7.65-4.065,58.716,58.716,0,0,0,6.66-4.95Zm3.36,15.3V33.73l5.22-.66V9.82h2.82l.48,26.19ZM-23.96,69.28a29.9,29.9,0,0,1-6.06-.51,10.559,10.559,0,0,1-3.54-1.27,1.713,1.713,0,0,1-.88-1.36q0-1.06,1.61-2.37a33.15,33.15,0,0,1,4.47-2.93,1.965,1.965,0,0,0-1.78-1.16,3.841,3.841,0,0,0-1.66.45,13.05,13.05,0,0,0-2.02,1.27,5.329,5.329,0,0,0-.9.86q-.46.54-.84,1.08t-.62.91l-.24.37-1.96-1.52q.86-1.42,2.06-3.2t2.52-3.58h-2.98l-.6-1.5,4.96-.38q.62-.8,1.2-1.53t1.12-1.39l1.92.66q-.44.52-.84,1.03t-.8,1.03l6.32-.48v2.56h-7.86q-.6.82-1.17,1.65t-1.13,1.71a11.688,11.688,0,0,1,2.27-1.37,5.485,5.485,0,0,1,2.27-.53,3.566,3.566,0,0,1,1.68.42,3.771,3.771,0,0,1,1.4,1.36q.74-.4,1.53-.81t1.63-.83l1.02,1.16q-1.82.98-3.48,1.98a11.74,11.74,0,0,1,.39,1.39,13.128,13.128,0,0,1,.25,1.71l-2.82.66q-.02-.64-.09-1.21t-.17-1.03a21.893,21.893,0,0,0-2.6,1.94q-.98.88-.98,1.42a.541.541,0,0,0,.36.48,4.554,4.554,0,0,0,1.05.25,14.238,14.238,0,0,0,2.01.11q.82,0,1.86-.05t2.34-.19Zm8.8-12.72-.64-1.8,11.64-1.14v2.94ZM-.26,57.8a1.174,1.174,0,0,1-.36.86,1.2,1.2,0,0,1-.88.36,1.174,1.174,0,0,1-.86-.36,1.174,1.174,0,0,1-.36-.86,1.164,1.164,0,0,1,.36-.87,1.191,1.191,0,0,1,.86-.35,1.215,1.215,0,0,1,.88.35A1.164,1.164,0,0,1-.26,57.8Zm-2.68.9a1.277,1.277,0,0,1-.4.95,1.326,1.326,0,0,1-.96.39,1.293,1.293,0,0,1-.95-.39,1.293,1.293,0,0,1-.39-.95,1.293,1.293,0,0,1,.39-.95,1.293,1.293,0,0,1,.95-.39,1.326,1.326,0,0,1,.96.39A1.277,1.277,0,0,1-2.94,58.7Zm.72,9.06q-2.42.34-4.72.48t-4.98.14a11.5,11.5,0,0,1-4.6-.69A2.329,2.329,0,0,1-18,65.44a6.165,6.165,0,0,1,.54-2.26,12.887,12.887,0,0,1,.66-1.33q.4-.71.98-1.63l1.52.66a13.353,13.353,0,0,0-.48,1.43q-.18.67-.32,1.37-.06.32-.1.57a2.983,2.983,0,0,0-.04.47,1.1,1.1,0,0,0,.3.84,1.877,1.877,0,0,0,1.02.38,15.2,15.2,0,0,0,1.98.1q1.18,0,2.76-.16t3.3-.43q1.72-.27,3.28-.63Zm17.08,1.12a8.172,8.172,0,0,1-3-.49A7.918,7.918,0,0,1,9.5,66.9a16.549,16.549,0,0,1-1.62,2.6l-1.12-.68a26.1,26.1,0,0,0,1.01-2.93,22.605,22.605,0,0,0,.65-3.25l2.44.68a22.178,22.178,0,0,1-.74,2.14,7.535,7.535,0,0,0,1.68.82V62.36H7.5L7.22,61.3q-.32.16-.66.34t-.68.34l-.18,7.5-4-.96V67.48l1.94-.4V62.92q-.5.2-1.04.39t-1.1.37L1,61.18q1.36-.22,2.64-.48V57H1.44l-.4-1.62,2.6-.32V51.5l2.46.4-.06,2.88,1.64-.2V57H5.98l-.06,3.18q.46-.12.91-.25t.89-.27V60.8l11.12-.76v2.32H14.12l-.26,4.28h.4q.2,0,.4-.02L19,66.34l-.66,2.54ZM8.32,59.66l-.4-7.48h2.34v.62l7.5-.62-.4,7.48Zm7.1-5.26H10.26v1l5.16-.4Zm0,2.5H10.26v1.16l5.16-.44Zm2.46,7.56a1.461,1.461,0,0,1-.45,1.07,1.533,1.533,0,0,1-2.17,0,1.446,1.446,0,0,1-.46-1.07,1.468,1.468,0,0,1,.46-1.09,1.535,1.535,0,0,1,2.62,1.09Zm13.22.48-.22,4.14-2.12.4V66.34q-.96.6-1.84,1.05t-1.81.84q-.93.39-2.11.79l-.54-1.18q1.3-.66,2.41-1.34t2.27-1.56H21.82l-.4-1.58,7.34-.34V62q-1.22.22-2.66.38t-3.18.26l-.26-1.28q1.82-.12,3.35-.35a16.451,16.451,0,0,0,2.83-.67q-.62-.14-1.25-.26t-1.29-.24l-.27.23a6.072,6.072,0,0,1-.57.43l-1.38-1.2,1.14-1.04H22.4L22,56.82l4.84-.24q.74-.82,1.4-1.64H24.1v1.4l-2.18.14-.32-3.94h2.54v.74l4.64-.24V51.5l2.58.2-.28,1.22,7.32-.38-.32,3.08-2.16.14v-.82H29.36l1.62.66-.78.82,7.8-.38v2.22H35.68a7.943,7.943,0,0,1-.67.67q-.35.31-.69.59l1.52.2q.76.1,1.5.22l-.88,2.32q-1.22-.36-2.34-.67t-2.22-.57a10.337,10.337,0,0,1-.98.39q-.5.17-1.06.33l1.42.22-.06.96,7.38-.34v2.36Zm-2.88-6.68q-.2.16-.4.31t-.42.31q1,.06,1.96.14t1.88.18q.34-.22.64-.45t.58-.49Zm8.98,8.92a1.66,1.66,0,0,1-.52,1.23,1.733,1.733,0,0,1-1.26.51,1.7,1.7,0,0,1-1.25-.51,1.676,1.676,0,0,1-.51-1.23,1.733,1.733,0,0,1,.51-1.26,1.683,1.683,0,0,1,1.25-.52,1.775,1.775,0,0,1,1.78,1.78Z" transform="translate(131.07 24.75)" fill="#0d0d0d"/>
</svg>
