<svg id="cart" xmlns="http://www.w3.org/2000/svg" width="34.102" height="35.928" viewBox="0 0 34.102 35.928">
  <path id="パス_255" data-name="パス 255" d="M40.7,0,39.043,6.441H13.013l4.843,16.806H34.705L34.1,25.6H19.036v2.478H36.017l6.607-25.6h4.491V0ZM32.25,20.77V16.021h4.32L35.345,20.77ZM38.4,8.919,37.21,13.544H32.25V8.919H38.4Zm-8.631,7.1V20.77H24.883V16.021Zm0-7.1v4.625H24.883V8.919h4.889Zm-7.367,0v4.625H17.638L16.305,8.919h6.1Zm0,7.1V20.77H19.721l-1.369-4.749Z" transform="translate(-13.013)" fill="#fff"/>
  <path id="パス_256" data-name="パス 256" d="M88.414,415.037a3.332,3.332,0,1,0,3.332,3.332A3.336,3.336,0,0,0,88.414,415.037Zm0,4.187a.855.855,0,1,1,.855-.855A.856.856,0,0,1,88.414,419.224Z" transform="translate(-80.025 -385.913)" fill="#fff"/>
  <path id="パス_257" data-name="パス 257" d="M255.466,417.024a3.332,3.332,0,1,0,3.332,3.332A3.336,3.336,0,0,0,255.466,417.024Zm0,4.187a.855.855,0,1,1,.855-.855A.855.855,0,0,1,255.466,421.211Z" transform="translate(-235.354 -387.761)" fill="#fff"/>
</svg>
