<svg xmlns="http://www.w3.org/2000/svg" width="220" height="104" viewBox="0 0 220 104">
  <g id="グループ_1581" data-name="グループ 1581" transform="translate(0.119)">
    <rect id="長方形_2846" data-name="長方形 2846" width="220" height="104" transform="translate(-0.119)" fill="#3e89f7"/>
    <g id="グループ_1579" data-name="グループ 1579" transform="translate(34.651 40.257)">
      <path id="document" d="M28.453,32c-2.876.164-8.591.762-12.12,2.936a.813.813,0,0,0-.381.7V54.848a.83.83,0,0,0,1.222.712c3.63-1.839,8.88-2.341,11.476-2.478a1.642,1.642,0,0,0,1.575-1.619V33.62A1.649,1.649,0,0,0,28.453,32ZM13.892,34.935C10.364,32.761,4.648,32.163,1.773,32A1.65,1.65,0,0,0,0,33.62V51.463a1.642,1.642,0,0,0,1.575,1.619c2.6.137,7.85.64,11.48,2.48a.828.828,0,0,0,1.218-.711V35.621a.8.8,0,0,0-.381-.686Z" transform="translate(0 -31.691)" fill="#fff"/>
      <path id="パス_2291" data-name="パス 2291" d="M12.147-53.233a16.806,16.806,0,0,1-4.119,1.469,40.8,40.8,0,0,1-5.058.973l-.939-2.576A33.831,33.831,0,0,0,8.994-54.91H4.647v-9.968h19.28a15.156,15.156,0,0,1-3.757-1.3,8.338,8.338,0,0,1-2.428-2.066,8.232,8.232,0,0,1-3.562,2.261,17.037,17.037,0,0,1-5.36,1.026L8-67.494a14.735,14.735,0,0,0,5.206-1.254,4.076,4.076,0,0,0,2.5-2.677H14.146a14.769,14.769,0,0,1-2.858,2.334L9.061-70.62A19.747,19.747,0,0,0,11.637-73a10.708,10.708,0,0,0,1.8-2.415l3.193.443q-.376.738-.671,1.234h10.72l.993.832a19.88,19.88,0,0,1-1.865,2.254,14.006,14.006,0,0,1-2.039,1.892l-2.388-.993a12.6,12.6,0,0,0,1.57-1.677h-3.7A5.383,5.383,0,0,0,20.559-69.7a6.267,6.267,0,0,0,1.872,1.234,16,16,0,0,0,2.616.731,26.675,26.675,0,0,0,3.441.483L27.2-64.368q-1.006-.094-1.758-.215v9.673h-4.36a54.949,54.949,0,0,0,7.057,1.342l-1.154,2.777q-6.574-.885-9.1-2.334l1.3-1.784h-8.52Zm9.673-8.882v-1.234H8.27v1.234ZM8.27-59.391H21.821v-1.315H8.27Zm13.551,1.409H8.27v1.422H21.821ZM10-73.183,7.773-71.01q-1.57-.751-4.481-2.254l2.147-1.945Q7.183-74.511,10-73.183ZM9.84-69.332a19.346,19.346,0,0,1-2.61,2.314A30.165,30.165,0,0,1,4.1-64.878l-2.12-2.254A26.136,26.136,0,0,0,7.17-70.849ZM37.18-57.875a22.4,22.4,0,0,1-3.193,4.119l-2-2a24.848,24.848,0,0,0,2.831-3.871,22.6,22.6,0,0,0,2.241-4.541H32.752v-2.724H37.18v-8.265h3.381v8.265h3.488v2.724H40.561v.7a18.026,18.026,0,0,0,3.757,3.636l-.241.4,8.345-.966v-8.332L50.5-66.341a68.032,68.032,0,0,0-4.978-5.273l2.281-2.563a38.964,38.964,0,0,1,4.615,4.682v-5.689h3.636v14.369l2.026-.228.054,3.113-2.08.242v6.655H52.421v-6.252l-8.6.979-.094-2.549-.979,1.664a13.118,13.118,0,0,1-2.187-2.147v8.466H37.18Zm7.8-15.577q-.349,1.556-1.449,5.689l-2.469-.228,1.033-5.876ZM36.63-68.125l-2.911.523q0-.483-.832-5.769l2.8-.443Q36.08-71.721,36.63-68.125ZM51.442-62.8l-2.281,2.75a51.167,51.167,0,0,0-5.031-5.326l2.173-2.67A45.377,45.377,0,0,1,51.442-62.8Zm36.812-2.415H73.066v-2.308h5.689v-1.046H74.019v-2.147h4.736v-1.006H73.442v-2.12h5.313v-1.409H82.4v1.409h5.608v2.12H82.4v1.006h4.884v2.147H82.4v1.046h5.85Zm-15.993-7.03H63.943v-2.388h8.318Zm.657,3.81H63v-2.683h9.915Zm-.792,3.529H63.97v-2.348h8.157Zm11.538,8.976H77.682v4.951H74.14V-64.113H87.261v10.545a2.164,2.164,0,0,1-.885,1.8,3.147,3.147,0,0,1-1.972.684H81.251l-.282-3.139h1.905a.828.828,0,0,0,.543-.208.611.611,0,0,0,.248-.476Zm0-4.964v-1.194H77.682v1.194Zm-5.984,3.072h5.984v-1.288H77.682Zm-5.554-3.488H63.97v-2.361h8.157Zm.215,9.257H66.8v.993h-3.22v-9.016h8.761Zm-3.233-2.361v-3.274H66.8v3.274Zm38.516.765a2.27,2.27,0,0,1-1.053,1.919,3.878,3.878,0,0,1-2.3.751h-4.2l-.416-3.354h3.488a.789.789,0,0,0,.537-.215.674.674,0,0,0,.242-.523V-67.736H93.806v-3.139h10.116V-75.1h3.7v4.226h3.985q-1.248-1.127-2.75-2.361l2.375-2.039a35.826,35.826,0,0,1,4.495,3.8l-.7.6h2.844v3.139h-10.25v.242a16.762,16.762,0,0,0,2.455,4.347,41.033,41.033,0,0,0,4.669-4.213l2.885,2.589a31.15,31.15,0,0,1-5.42,4.092l.134.134a40.032,40.032,0,0,0,6.735,5.273l-2.938,2.885a32.86,32.86,0,0,1-8.52-8.452Zm-5.461-8.211L98.944-60.1a43.327,43.327,0,0,0-3.824-6.024l3.059-1.529q.59.657,2.1,2.831A26.869,26.869,0,0,1,102.164-61.859Zm1.623,3.6A25.931,25.931,0,0,1,99.7-56.07Q96.637-54.655,93.98-53.7l-1.207-3.435a55.178,55.178,0,0,0,5.414-1.885,35.052,35.052,0,0,0,4.635-2.18Z" transform="translate(32.443 75.41)" fill="#fff"/>
    </g>
  </g>
</svg>
