<svg xmlns="http://www.w3.org/2000/svg" xmlns:xlink="http://www.w3.org/1999/xlink" width="696" height="106.04" viewBox="0 0 696 106.04">
  <defs>
    <linearGradient id="linear-gradient" x1="0.181" y1="0.545" x2="0.864" y2="0.949" gradientUnits="objectBoundingBox">
      <stop offset="0" stop-color="#f4281c"/>
      <stop offset="1" stop-color="#fd6e26"/>
    </linearGradient>
    <linearGradient id="linear-gradient-2" x1="0.5" x2="0.5" y2="1" gradientUnits="objectBoundingBox">
      <stop offset="0" stop-color="#f4221b"/>
      <stop offset="1" stop-color="#ff7600"/>
    </linearGradient>
    <linearGradient id="linear-gradient-3" x1="0.5" x2="0.5" y2="1" gradientUnits="objectBoundingBox">
      <stop offset="0" stop-color="#c0f792"/>
      <stop offset="1" stop-color="#66ce0d"/>
    </linearGradient>
    <linearGradient id="linear-gradient-5" x1="0.5" x2="0.5" y2="1" gradientUnits="objectBoundingBox">
      <stop offset="0" stop-color="#9be65c"/>
      <stop offset="1" stop-color="#63d600"/>
    </linearGradient>
    <linearGradient id="linear-gradient-7" x1="1.049" y1="-0.089" x2="0.129" y2="0.898" gradientUnits="objectBoundingBox">
      <stop offset="0" stop-color="red"/>
      <stop offset="1" stop-color="#f84e6f"/>
    </linearGradient>
    <radialGradient id="radial-gradient" cx="0.5" cy="0.5" r="0.5" gradientUnits="objectBoundingBox">
      <stop offset="0" stop-color="#ffb031"/>
      <stop offset="1" stop-color="#ff4e00"/>
    </radialGradient>
  </defs>
  <g id="グループ_431" data-name="グループ 431" transform="translate(-148 -257.96)">
    <g id="グループ_423" data-name="グループ 423" transform="translate(8.748 0.53)">
      <g id="グループ_422" data-name="グループ 422" transform="translate(139.252 260.47)">
        <path id="パス_252" data-name="パス 252" d="M17.765,0c9.812,0,0,8.148,0,18.2s9.812,18.2,0,18.2A17.986,17.986,0,0,1,0,18.2,17.986,17.986,0,0,1,17.765,0Z" transform="translate(41.196 79.229) rotate(-107)" fill="url(#linear-gradient)"/>
        <path id="パス_246" data-name="パス 246" d="M51.117,0c28.231,0,0,23.057,0,51.5s28.231,51.5,0,51.5a51.5,51.5,0,0,1,0-103Z" transform="translate(0 0)" fill="url(#linear-gradient-2)"/>
        <path id="パス_252-2" data-name="パス 252" d="M17.765,0c9.812,0,0,8.148,0,18.2s9.812,18.2,0,18.2A17.986,17.986,0,0,1,0,18.2,17.986,17.986,0,0,1,17.765,0Z" transform="translate(89.193 52.347) rotate(-107)" fill="url(#linear-gradient-3)"/>
        <path id="パス_247" data-name="パス 247" d="M35.131,0c19.4,0,0,16.1,0,35.958s19.4,35.958,0,35.958S0,55.817,0,35.958,15.729,0,35.131,0Z" transform="translate(111.353 87.567) rotate(180)" fill="url(#linear-gradient-3)"/>
        <circle id="楕円形_13" data-name="楕円形 13" cx="3.435" cy="3.435" r="3.435" transform="translate(106.908 11.974)" fill="url(#linear-gradient-5)"/>
        <circle id="楕円形_15" data-name="楕円形 15" cx="1.718" cy="1.718" r="1.718" transform="translate(101.755 17.127)" fill="url(#linear-gradient-5)"/>
        <g id="グループ_421" data-name="グループ 421" transform="translate(53.463 33.403)">
          <g id="グループ_414" data-name="グループ 414" transform="translate(0 0)">
            <g id="グループ_412" data-name="グループ 412" transform="translate(0 7.749) rotate(-45)">
              <path id="パス_268" data-name="パス 268" d="M0,0H7.487V6.977H0Z" transform="translate(0 4.114)" fill="url(#linear-gradient-7)"/>
              <path id="パス_266" data-name="パス 266" d="M3.945,0A3.945,3.945,0,1,1,0,3.945,3.945,3.945,0,0,1,3.945,0Z" transform="translate(0 0)" fill="url(#linear-gradient-7)"/>
              <path id="パス_267" data-name="パス 267" d="M3.719,0A4.132,4.132,0,0,1,8.036,3.833,4.018,4.018,0,1,1,0,3.833,3.619,3.619,0,0,1,3.719,0Z" transform="translate(2.922 3.253)" fill="url(#linear-gradient-7)"/>
            </g>
            <path id="パス_262" data-name="パス 262" d="M2.71-1.394c1.5,0,2.71,2.928,2.71,4.424A2.71,2.71,0,0,1,0,3.031C0,1.534,1.213-1.394,2.71-1.394Z" transform="translate(5.09 6.977)" fill="url(#radial-gradient)"/>
          </g>
        </g>
      </g>
    </g>
    <g id="グループ_427" data-name="グループ 427" transform="translate(-343.774 146.191)">
      <g id="グループ_428" data-name="グループ 428" transform="translate(635.774 138.065)">
        <path id="パス_269" data-name="パス 269" d="M-251.076-10.411V-56.821c0-11.261-9.862-23.461-22.691-23.461h-.262c-2.182,0-3.316.938-3.316,3.668,0,2.815,1.135,3.668,3.316,3.668h.262c9.076,0,15.273,9.214,15.273,16.124v46.409c0,2.047.96,3.071,3.753,3.071S-251.076-8.364-251.076-10.411Zm-44.858-66.2c0-2.73-1.135-3.668-3.316-3.668h-.175c-12.829,0-22.691,12.2-22.691,23.461v46.409c0,2.047.873,3.071,3.665,3.071s3.753-1.024,3.753-3.071V-56.821c0-6.91,6.2-16.124,15.273-16.124h.175C-297.069-72.945-295.934-73.8-295.934-76.613Zm106.56,13.479c0-1.621-.873-2.389-2.531-2.815l-31.244-7.934a6.134,6.134,0,0,0-1.135-.171c-2.095,0-2.705,2.559-2.705,4.18s.873,2.389,2.444,2.815l31.244,7.934a6.134,6.134,0,0,0,1.135.171c1.309,0,2.182-.853,2.618-2.9A8.683,8.683,0,0,0-189.374-63.134Zm36.655,16.806v-7.849c0-2.133-.96-3.242-3.84-3.242s-3.753,1.109-3.753,3.242v7.849c0,19.451-7.069,31.565-33.338,31.565h-29.673c-2.182,0-3.229.938-3.229,3.754s1.047,3.668,3.229,3.668h29.76C-161.447-7.34-152.72-24.573-152.72-46.327Zm94.6-2.218c0-2.73-1.135-3.668-3.229-3.668h-49.745V-79.6c0-2.218-.96-3.327-3.84-3.327s-3.84,1.109-3.84,3.327v68.932c0,2.218.96,3.242,3.84,3.242s3.84-1.024,3.84-3.242v-34.3h49.745C-59.251-44.962-58.116-45.816-58.116-48.546ZM38.233-38.223v-3.583c0-2.133-.96-3.242-3.84-3.242s-3.753,1.109-3.753,3.242v3.5c0,13.906-7.68,23.631-25.571,23.631H-23.556V-79.684c0-2.133-.96-3.242-3.753-3.242-2.88,0-3.753,1.109-3.753,3.242V-7.425H5.069C27.5-7.425,38.233-19.71,38.233-38.223Zm59.695.341c0-.171-.087-.427-.087-.682L94.7-59.039c-.262-1.621-.96-2.474-2.793-2.474s-4.1.512-4.1,2.73l3.142,21.157c.262,1.706.96,2.559,2.793,2.559C95.659-35.066,97.928-35.578,97.928-37.882Zm27.578-1.28V-61.939c0-2.047-.96-3.071-3.665-3.071s-3.578,1.024-3.578,3.071v22.778c0,15.271-5.411,24.655-26.269,24.655H86.146c-2.095,0-3.055.938-3.055,3.583s.96,3.5,3.055,3.5H92.08C117.913-7.425,125.506-21.587,125.506-39.161ZM76.982-37.8c0-.171-.087-.427-.087-.682L73.84-59.039c-.262-1.621-.96-2.474-2.793-2.474s-4.1.512-4.1,2.73L70.088-37.54c.262,1.621.96,2.474,2.793,2.474S76.982-35.578,76.982-37.8ZM229.448-66.632A2.238,2.238,0,0,0,228.924-68l-5.585-8.1c-.524-.682-.96-1.024-1.571-1.024-1.222,0-3.142,1.45-3.142,2.645a2.5,2.5,0,0,0,.436,1.28l5.5,8.019a2.134,2.134,0,0,0,1.745,1.024C227.44-64.158,229.448-65.437,229.448-66.632Zm-11.782,1.45a2.239,2.239,0,0,0-.524-1.365l-5.411-8.19a2,2,0,0,0-1.658-1.024c-1.222,0-3.229,1.365-3.229,2.645a2.219,2.219,0,0,0,.524,1.28l5.5,8.1a2.116,2.116,0,0,0,1.658,1.024C215.746-62.707,217.666-63.987,217.666-65.181Zm12.218,16.636c0-2.73-1.135-3.668-3.229-3.668H176.909V-79.6c0-2.218-.96-3.327-3.84-3.327s-3.84,1.109-3.84,3.327v68.932c0,2.218.96,3.242,3.84,3.242s3.84-1.024,3.84-3.242v-34.3h49.745C228.749-44.962,229.884-45.816,229.884-48.546Z" transform="translate(322.116 83.084)"/>
        <g id="グループ_415" data-name="グループ 415" transform="translate(242.686 0)">
          <g id="グループ_412-2" data-name="グループ 412" transform="translate(0 11.426) rotate(-45)">
            <path id="パス_268-2" data-name="パス 268" d="M0,0H11.04V10.288H0Z" transform="translate(0 6.066)" fill="url(#linear-gradient-7)"/>
            <path id="パス_266-2" data-name="パス 266" d="M5.817,0A5.817,5.817,0,1,1,0,5.817,5.817,5.817,0,0,1,5.817,0Z" transform="translate(0 0)" fill="url(#linear-gradient-7)"/>
            <path id="パス_267-2" data-name="パス 267" d="M5.484,0C8.756,0,11.85,2.38,11.85,5.652A5.925,5.925,0,0,1,0,5.652,5.336,5.336,0,0,1,5.484,0Z" transform="translate(4.309 4.797)" fill="url(#linear-gradient-7)"/>
          </g>
          <path id="パス_262-2" data-name="パス 262" d="M4-1.394c2.207,0,4,4.317,4,6.524A4,4,0,0,1,0,5.131C0,2.923,1.789-1.394,4-1.394Z" transform="translate(7.505 8.791)" fill="url(#radial-gradient)"/>
        </g>
      </g>
      <path id="パス_306" data-name="パス 306" d="M-155.98.32c0-.62-.24-.84-.72-.84h-3.62V-9.6h3.08c.48,0,.74-.2.74-.84,0-.62-.26-.84-.74-.84h-3.08V-15.9c0-.48-.22-.72-.84-.72s-.82.24-.82.72v4.62h-3.08c-.48,0-.72.22-.72.84,0,.64.24.84.72.84h3.08V-.52h-3.66c-.48,0-.7.22-.7.84s.22.82.7.82h8.94C-156.22,1.14-155.98.94-155.98.32Zm-10.08-4.56a.551.551,0,0,0-.2-.4l-1.52-1.56a.624.624,0,0,0-.44-.22.957.957,0,0,0-.78.78.551.551,0,0,0,.2.4l1.52,1.58a.622.622,0,0,0,.42.22A1,1,0,0,0-166.06-4.24Zm-.56-9.34a1.055,1.055,0,0,0-1.18-1h-1.76v-1.34c0-.46-.2-.7-.8-.7s-.78.24-.78.7v1.34h-2.1c-.44,0-.66.2-.66.78s.22.76.66.76h4.74l-5.42,8.46a.849.849,0,0,0-.16.44,1.133,1.133,0,0,0,.88.9c.16,0,.3-.12.42-.32l1.8-2.82V.72c0,.46.18.68.78.68s.8-.22.8-.68V-8.86l2.6-4.06A1.222,1.222,0,0,0-166.62-13.58Zm32.48,1.94a.629.629,0,0,0-.42-.58l-6.96-3.64a.722.722,0,0,0-.38-.1c-.38,0-.72.62-.72.96a.567.567,0,0,0,.38.5l7.04,3.76a.759.759,0,0,0,.36.12c.24,0,.42-.16.58-.54A1.205,1.205,0,0,0-134.14-11.64Zm-2.74,1.72c0-.54-.22-.74-.64-.74h-10.92c-.42,0-.62.2-.62.74s.2.72.62.72h10.92C-137.1-9.2-136.88-9.38-136.88-9.92Zm-5.56-6.16a1.19,1.19,0,0,0-.16-.5c-.18-.32-.36-.46-.58-.46a.762.762,0,0,0-.38.12l-8.02,4.68a.682.682,0,0,0-.4.58c0,.34.3,1.02.7,1.02a.762.762,0,0,0,.38-.12l8.1-4.78A.6.6,0,0,0-142.44-16.08ZM-134.5-5.5c0-.54-.22-.74-.64-.74h-15.72c-.42,0-.62.2-.62.74s.2.72.62.72h3.62l-2.7,4.44-.6.06c-.38.04-.6.2-.6.62s.08.94.6.9L-136.96.06l.34.88c.12.3.28.46.56.46.38,0,1-.28,1-.7a1.11,1.11,0,0,0-.06-.34l-1.38-3.64c-.12-.3-.26-.46-.52-.46-.38,0-1.02.32-1.02.74a1.109,1.109,0,0,0,.06.34l.48,1.28-10.54.88,2.62-4.28h10.28C-134.72-4.78-134.5-4.96-134.5-5.5ZM-111.98.4c0-.56-.22-.76-.66-.76h-3.44v-5.1h2.8c.44,0,.66-.18.66-.74s-.22-.76-.66-.76h-2.8v-5.1h3.28c.44,0,.66-.18.66-.74s-.22-.76-.66-.76h-3.28v-2.38c0-.44-.2-.68-.78-.68-.6,0-.78.24-.78.68v2.38h-2.7l.48-1.92a.9.9,0,0,0,.02-.22c0-.48-.54-.62-.92-.62a.551.551,0,0,0-.58.5l-1.4,5.68a1.376,1.376,0,0,0-.04.26c0,.46.58.6.96.6.32,0,.48-.16.56-.5l.56-2.28h3.06v5.1h-3.44c-.44,0-.64.2-.64.76s.2.74.64.74h3.44v5.1h-4.22c-.44,0-.64.2-.64.76,0,.58.2.76.64.76h9.22C-112.2,1.16-111.98.98-111.98.4Zm-10.98-7.72a.554.554,0,0,0-.02-.18l-.88-4.74c-.06-.3-.2-.46-.5-.46-.36,0-.84.14-.84.56l.9,4.9c.06.3.2.46.52.46C-123.44-6.78-122.96-6.9-122.96-7.32ZM-125.82.76V-15.92c0-.46-.2-.7-.8-.7s-.78.24-.78.7V.76c0,.46.18.68.78.68S-125.82,1.22-125.82.76ZM-128.7-6.9v-5.16c0-.38-.18-.58-.66-.58-.5,0-.66.2-.66.58V-6.9c0,.38.16.56.66.56C-128.88-6.34-128.7-6.52-128.7-6.9Zm36.2-6.98c0-.64-.26-.86-.76-.86h-10.2l.14-.9c0-.56-.58-.68-1.02-.68a.632.632,0,0,0-.7.62l-.16.96h-1.5c-.5,0-.74.22-.74.86,0,.66.24.86.74.86h1.2l-1.22,7.2c0,.56.58.66,1.02.66a.632.632,0,0,0,.7-.62l1.24-7.24h10.5C-92.76-13.02-92.5-13.22-92.5-13.88Zm2,4.9c0-.64-.26-.86-.76-.86h-7.92a5.54,5.54,0,0,0-5.54,5.54,5.518,5.518,0,0,0,5.54,5.5h6.4c.5,0,.76-.2.76-.86,0-.64-.26-.86-.76-.86h-6.4A3.8,3.8,0,0,1-103-4.3a3.833,3.833,0,0,1,3.82-3.82h2.72v3.44c0,.5.2.74.86.74.64,0,.86-.24.86-.74V-8.12h3.48C-90.76-8.12-90.5-8.32-90.5-8.98Zm22.52-5.82c0-.5-.2-.68-.6-.68h-7.58v-.42c0-.48-.22-.72-.82-.72-.62,0-.82.24-.82.72v.42h-7.62c-.4,0-.58.18-.58.68,0,.52.18.68.58.68h3.6l-2.74,2.8-.64.04a.519.519,0,0,0-.56.6c0,.42.06.84.58.8l14.78-.98.54,1.04a.571.571,0,0,0,.52.38c.32,0,.92-.28.92-.64a.811.811,0,0,0-.1-.34L-70-13.34a.581.581,0,0,0-.52-.38c-.34,0-.92.26-.92.64a.811.811,0,0,0,.1.34l.26.52-11.36.76,2.6-2.66h11.26C-68.18-14.12-67.98-14.28-67.98-14.8ZM-69.8.72v-8a1.389,1.389,0,0,0-1.5-1.38H-82.72a1.389,1.389,0,0,0-1.5,1.38v8c0,.48.2.7.82.7.6,0,.82-.22.82-.7V-1h11.14V.72c0,.48.2.7.82.7C-70.02,1.42-69.8,1.2-69.8.72Zm-1.64-6.14H-82.58V-7.34h11.14Zm0,3.14H-82.58V-4.14h11.14ZM-46.22-4.1V-5.92l-5.98-4.26a.792.792,0,0,0-.46-.18c-.42,0-.9.64-.9,1.04a.66.66,0,0,0,.34.54l5.26,3.74v.92A3.944,3.944,0,0,1-51.92-.16a3.82,3.82,0,0,1-3.96-3.96v-8.34h8.44c.5,0,.76-.2.76-.86,0-.64-.26-.86-.76-.86h-8.44v-1.28c0-.5-.22-.76-.86-.76-.66,0-.86.26-.86.76v1.28h-5.04c-.5,0-.74.22-.74.86,0,.66.24.86.74.86h5.04v4.08a4.053,4.053,0,0,0-2.48-.86,4.2,4.2,0,0,0-4.2,4.18,4.2,4.2,0,0,0,4.2,4.2A4.178,4.178,0,0,0-57.22-2,5.5,5.5,0,0,0-51.9,1.58,5.689,5.689,0,0,0-46.22-4.1ZM-57.6-5.06a2.467,2.467,0,0,1-2.48,2.48,2.48,2.48,0,0,1-2.48-2.48,2.492,2.492,0,0,1,2.48-2.48A2.506,2.506,0,0,1-57.6-5.06Zm33.34-9.5c0-.66-.26-.88-.76-.88h-1.1a1.485,1.485,0,0,0-1.5,1.5v6.3c0,3.88-2.44,7.36-7.5,7.36h-4.04c-.5,0-.74.22-.74.88s.24.86.74.86h4.02c6.38,0,9.26-4.56,9.26-9.1v-5.5a.547.547,0,0,1,.56-.56h.3C-24.52-13.7-24.26-13.9-24.26-14.56ZM-37.12-7.02a1,1,0,0,0-.06-.32l-2.24-7.14c-.1-.34-.28-.52-.58-.52-.42,0-1.12.3-1.12.78a1,1,0,0,0,.06.32l2.22,7.16c.1.34.28.52.58.52C-37.82-6.22-37.12-6.52-37.12-7.02ZM-3.2-7.44c0-.66-.26-.9-.78-.9H-18.02c-.52,0-.76.24-.76.9s.24.88.76.88H-3.98C-3.46-6.56-3.2-6.78-3.2-7.44Zm14.04-5.52v-.18a.616.616,0,0,0-.64-.7L3.9-14.5c-.56,0-.68.46-.68.94,0,.46.22.64.64.68l6.3.68C10.56-12.2,10.78-12.4,10.84-12.96Zm8.82,5.28c0-.48-.22-.74-.88-.74s-.86.26-.86.74c0,4.56-1.62,7.4-7.64,7.4H3.48c-.5,0-.74.22-.74.88s.24.86.74.86H10.3C17.66,1.46,19.66-2.58,19.66-7.68Zm-8.82.72v-.18a.616.616,0,0,0-.64-.7l-6.3-.7c-.58,0-.68.48-.68.94a.608.608,0,0,0,.64.7l6.3.68C10.56-6.22,10.78-6.42,10.84-6.96Zm29.42.72a4.615,4.615,0,0,0-4.84-4.68H29.5V-12c0-.48-.22-.72-.82-.72s-.8.24-.8.72v1.08h-1.3c-.48,0-.7.22-.7.82s.22.8.7.8h1.3V.74c0,.48.2.7.8.7s.82-.22.82-.7V-9.3h5.92a2.968,2.968,0,0,1,3.24,3.06,2.968,2.968,0,0,1-3.24,3.06H32.3c-.46,0-.68.2-.68.8s.22.8.68.8h3.16A4.554,4.554,0,0,0,40.26-6.24ZM63.8-3.8V-5.32c0-.5-.22-.76-.88-.76s-.86.26-.86.76v1.5A3.4,3.4,0,0,1,58.38-.26H55.7V-15.38c0-.5-.22-.76-.86-.76-.66,0-.86.26-.86.76V1.46h4.44A5.053,5.053,0,0,0,63.8-3.8ZM50.88-1.52V-15.38c0-.5-.22-.76-.86-.76-.66,0-.86.26-.86.76V-1.66A1.192,1.192,0,0,1,47.8-.3H46.62a.789.789,0,0,0-.7.88.789.789,0,0,0,.7.88H47.9A2.734,2.734,0,0,0,50.88-1.52ZM86,.48A.749.749,0,0,0,85.78,0L80.66-5.88a12.028,12.028,0,0,0,.68-4.02v-3.8a1.485,1.485,0,0,0-1.5-1.5H71.16c-.5,0-.74.22-.74.88s.24.86.74.86h7.86a.547.547,0,0,1,.56.56v3.04a9.311,9.311,0,0,1-9.34,9.6H68.86c-.5,0-.74.22-.74.86,0,.66.24.86.74.86h1.38a10.873,10.873,0,0,0,9.64-5.58l4.56,5.24a.684.684,0,0,0,.52.3C85.36,1.42,86,.88,86,.48Zm21.86-3.56c0-.64-.26-.86-.74-.86H99.94v-7h6.7c.48,0,.74-.2.74-.84s-.26-.86-.74-.86h-6.7v-2.84c0-.5-.22-.76-.88-.76s-.86.26-.86.76v2.84H91.38c-.48,0-.72.22-.72.86s.24.84.72.84H98.2v7H90.88c-.48,0-.72.22-.72.86s.24.84.72.84H98.2V.72c0,.5.2.74.86.74s.88-.24.88-.74V-2.24h7.18C107.6-2.24,107.86-2.44,107.86-3.08ZM129.8-3.8V-5.32c0-.5-.22-.76-.88-.76s-.86.26-.86.76v1.5a3.4,3.4,0,0,1-3.68,3.56H121.7V-15.38c0-.5-.22-.76-.86-.76-.66,0-.86.26-.86.76V1.46h4.44A5.053,5.053,0,0,0,129.8-3.8ZM116.88-1.52V-15.38c0-.5-.22-.76-.86-.76-.66,0-.86.26-.86.76V-1.66A1.192,1.192,0,0,1,113.8-.3h-1.18a.789.789,0,0,0-.7.88.789.789,0,0,0,.7.88h1.28A2.734,2.734,0,0,0,116.88-1.52Zm26.64-12.86a1.376,1.376,0,0,0-.04-.26l-.42-1.44c-.1-.32-.26-.48-.58-.48-.36,0-.94.16-.94.6a1.376,1.376,0,0,0,.04.26l.44,1.44c.1.32.26.48.58.48C142.96-13.78,143.52-13.94,143.52-14.38Zm8.5,3.86v-1.82a1.291,1.291,0,0,0-1.38-1.38H149l.68-1.86a.994.994,0,0,0,.06-.32c0-.42-.6-.62-.96-.62a.634.634,0,0,0-.62.5l-.86,2.3H135.38A1.291,1.291,0,0,0,134-12.34v1.82c0,.46.18.68.78.68s.8-.22.8-.68v-1.66h14.86v1.66c0,.46.18.68.78.68S152.02-10.06,152.02-10.52Zm-13.76-3.86a.785.785,0,0,0-.06-.28l-.4-1.24a.58.58,0,0,0-.6-.48c-.36,0-.92.16-.92.6a1.376,1.376,0,0,0,.04.26l.4,1.26a.574.574,0,0,0,.58.48C137.66-13.78,138.26-13.94,138.26-14.38ZM152.02-4.32c0-.58-.24-.78-.68-.78h-7.38v-.92l3.76-2.08a1.072,1.072,0,0,0,.54-.94,1.246,1.246,0,0,0-1.4-1.16h-9.1c-.44,0-.64.2-.64.76s.2.74.64.74h8.18l-3.12,1.64a1.174,1.174,0,0,0-.52.94V-5.1h-7.64c-.44,0-.66.2-.66.78s.22.76.66.76h7.64v3.4h-3.1c-.44,0-.66.2-.66.78,0,.6.22.78.66.78h3.48A1.142,1.142,0,0,0,143.96.12V-3.56h7.38C151.78-3.56,152.02-3.74,152.02-4.32ZM173.48-9.1v-5.84c0-.92-.34-1.38-1.28-1.38h-6.3c-.4,0-.58.18-.58.68s.18.66.58.66H172V-9.1c0,.44.18.64.74.64C173.28-8.46,173.48-8.66,173.48-9.1Zm-3.04-3.72c0-.28-.16-.42-.44-.48l-3.38-.64c-.4,0-.54.48-.54.82,0,.28.16.4.44.46l3.38.64c.26,0,.42-.14.52-.54A1.23,1.23,0,0,0,170.44-12.82Zm.16,2.54a1.073,1.073,0,0,0-.08-.38c-.12-.32-.28-.44-.48-.44a.706.706,0,0,0-.28.06l-3.48,1.48c-.24.1-.36.24-.36.44,0,.3.22.82.56.82a.691.691,0,0,0,.26-.06l3.52-1.48C170.48-9.94,170.6-10.06,170.6-10.28Zm-6.48.92v-5.58c0-.92-.34-1.38-1.3-1.38h-6.28c-.4,0-.58.18-.58.68s.18.66.58.66h6.1v5.62c0,.44.18.64.74.64C163.92-8.72,164.12-8.92,164.12-9.36Zm-2.96-3.46c0-.28-.16-.42-.44-.48l-3.36-.64c-.4,0-.54.48-.54.82,0,.28.16.4.44.46l3.38.64c.26,0,.42-.14.5-.54A1.23,1.23,0,0,0,161.16-12.82Zm.18,2.52a.908.908,0,0,0-.08-.36c-.12-.32-.28-.44-.48-.44a.706.706,0,0,0-.28.06l-3.48,1.48c-.24.1-.36.24-.36.44,0,.3.22.82.56.82a.69.69,0,0,0,.26-.06l3.5-1.48A.48.48,0,0,0,161.34-10.3ZM172.84-.14V-5.42a1.217,1.217,0,0,0-1.38-1.28H164.7l.4-.8a.812.812,0,0,0,.1-.34c0-.38-.6-.58-.92-.58a.6.6,0,0,0-.58.4l-.64,1.32h-4.52a1.217,1.217,0,0,0-1.38,1.28V-.14a1.217,1.217,0,0,0,1.38,1.28h12.92A1.217,1.217,0,0,0,172.84-.14ZM171.2-3.42H158.8V-5.36h12.4Zm0,3.22H158.8V-2.16h12.4Z" transform="translate(911.675 128.809)"/>
    </g>
  </g>
</svg>
