<svg xmlns="http://www.w3.org/2000/svg" xmlns:xlink="http://www.w3.org/1999/xlink" width="2474.704" height="299.673" viewBox="0 0 2474.704 299.673">
  <defs>
    <clipPath id="clip-path">
      <circle id="楕円形_13" data-name="楕円形 13" cx="131.5" cy="131.5" r="131.5" transform="translate(-6829 -3446)" fill="#fff"/>
    </clipPath>
  </defs>
  <g id="グループ_34" data-name="グループ 34" transform="translate(10299.324 3428.873)">
    <path id="パス_2" data-name="パス 2" d="M27,0A27,27,0,1,1,0,27,27,27,0,0,1,27,0Z" transform="translate(-8523.324 -3428.873)" fill="#fff"/>
    <circle id="楕円形_10" data-name="楕円形 10" cx="27" cy="27" r="27" transform="translate(-9656.324 -3428.873)" fill="#fff"/>
    <path id="パス_4" data-name="パス 4" d="M205.092-14.58l-74.52-87.48c17.5-1.944,36.288-7.128,50.22-18.792,13.284-11.664,20.412-27.54,20.412-47.628q0-26.73-18.468-42.768c-33.7-29.16-102.06-20.412-104.976-19.764l-2.916.324V-3.564h7.128v-99.144c6.156.648,21.708,2.592,39.528,1.3L199.26-10.04ZM81.972-110.16V-224.208c13.608-1.3,68.364-5.184,95.9,18.468,10.692,9.4,15.876,21.708,15.876,37.26,0,17.82-5.832,32.076-17.82,41.8C146.772-102.06,91.044-108.864,81.972-110.16ZM348.624,14.58h7.452V-149.04h-7.452Zm7.452-261.468h-7.452v19.764h7.452ZM582.552-5.508c30.456,0,58-20.412,69.66-51.84l-6.8-2.592C634.72-31.1,610.1-12.64,582.556-12.64c-37.584,0-68.04-34.668-68.04-77.436s30.456-77.76,68.04-77.76c22.68,0,43.74,12.96,56.376,34.02l6.48-3.564c-14.256-23.652-37.584-37.584-62.856-37.584-41.472,0-75.168,37.908-75.168,84.888C507.384-43.416,541.08-5.508,582.552-5.508Zm265.032-157.14c-42.768,0-77.436,38.556-77.436,85.86,0,46.98,34.668,85.536,77.436,85.536s77.76-38.556,77.76-85.536C925.344-124.092,890.352-162.648,847.584-162.648Zm0,163.944c-38.88,0-70.308-34.992-70.308-78.084,0-43.416,31.428-78.408,70.308-78.408s70.308,34.992,70.308,78.408C917.892-33.7,886.464,1.3,847.584,1.3Zm356.724-242.028V-2.916h130.248v-7.452h-122.8V-240.732ZM1481.976,14.58h7.452V-149.04h-7.452Zm7.452-261.468h-7.452v19.764h7.452Zm233.28-2.268a27.517,27.517,0,0,0-19.48,8.059,27.517,27.517,0,0,0-8.06,19.48V-162H1647.54v7.128h47.628V24.3h7.452V-154.872h41.472V-162H1702.62v-59.616a20.26,20.26,0,0,1,20.088-20.412,20.327,20.327,0,0,1,14.458,5.954,20.327,20.327,0,0,1,5.953,14.458h7.128a27.517,27.517,0,0,0-8.06-19.48,27.517,27.517,0,0,0-19.48-8.06ZM2036.34-91.368v-3.888c-1.62-59.94-49.9-75.816-75.492-75.816-42.12,0-76.788,38.88-76.788,86.508s34.668,86.508,76.788,86.508c31.1,0,58.968-20.736,70.956-53.136l-6.8-2.592C2013.988-24.3,1989.04-5.508,1960.852-5.508c-38.232,0-69.336-35.316-69.336-79.056a43.477,43.477,0,0,1,.324-6.8Zm-75.492-72.252c22.68,0,64.476,13.608,67.716,64.8-7.452,0-135.432.324-135.756.324C1899.612-134.46,1927.476-163.62,1960.848-163.62Zm171.72,135.108a7.087,7.087,0,0,0,7.128,6.48,6.309,6.309,0,0,0,4.543-2.074,6.309,6.309,0,0,0,1.613-4.726c0-3.888-2.916-6.48-6.8-6.48a6.785,6.785,0,0,0-6.484,6.8Z" transform="translate(-9982 -3165)" fill="#fff" stroke="#fff" stroke-width="23"/>
    <g id="マスクグループ_2" data-name="マスクグループ 2" transform="translate(-3470.324 27)" clip-path="url(#clip-path)">
      <g id="グループ_19" data-name="グループ 19" transform="translate(0 -27.732)">
        <rect id="長方形_9" data-name="長方形 9" width="263" height="263" transform="translate(-6829 -3418.268)" fill="#fff"/>
        <rect id="長方形_10" data-name="長方形 10" width="52.887" height="263" transform="translate(-6829 -3418.268)" fill="#d49baa"/>
        <rect id="長方形_11" data-name="長方形 11" width="52.887" height="263" transform="translate(-6776.472 -3418.268)" fill="#a25e5f"/>
        <rect id="長方形_12" data-name="長方形 12" width="52.887" height="263" transform="translate(-6723.943 -3418.268)" fill="#648ea3"/>
        <rect id="長方形_13" data-name="長方形 13" width="52.887" height="263" transform="translate(-6671.416 -3418.268)" fill="#c9a572"/>
        <rect id="長方形_14" data-name="長方形 14" width="52.887" height="263" transform="translate(-6618.887 -3418.268)" fill="#b9cfc7"/>
      </g>
    </g>
  </g>
</svg>
