<svg xmlns="http://www.w3.org/2000/svg" width="594.332" height="69.054" viewBox="0 0 594.332 69.054">
  <g id="グループ_1377" data-name="グループ 1377" transform="translate(6936.596 -5815)">
    <g id="グループ_1376" data-name="グループ 1376" transform="translate(-7216.598 5536.54)">
      <path id="パス_1269" data-name="パス 1269" d="M459.833,345.808c-26.875.074-35.657-9.975-35.657-22.036,0-12.73,9.451-20.249,22.555-24.566-.671-5.136-2.384-19.653-2.384-19.653h13.922s1.042,10.126,1.712,16.378a202.859,202.859,0,0,1,26.724-2.458v12.88c-27.094.224-48.611,6.031-48.611,16.377,0,7.368,8.337,10.274,22.408,10.274a164.413,164.413,0,0,0,26.576-2.532v13.177A188.461,188.461,0,0,1,459.833,345.808Z" fill="#cb1516"/>
      <path id="パス_1270" data-name="パス 1270" d="M523.706,299.653c-1.861,5.136-3.425,9.38-3.575,9.677,3.575-2.084,9.679-4.541,18.835-4.541,13.7,0,22.633,6.924,22.633,18.312,0,13.625-12.433,22.186-34.245,22.186a110.306,110.306,0,0,1-25.163-2.915V330.015A100.712,100.712,0,0,0,526.459,333c10.572,0,21.365-2.756,21.365-10.051,0-3.722-3.424-6.625-11.686-6.625-8.486,0-16.526,3.648-20.322,7.37H501.895c.446-1.116,4.539-12.878,8.337-24.045h-12.8V287.668H514.25c1.566-4.541,2.682-7.816,2.832-8.339h13.994c-.223.671-1.415,4.02-2.977,8.339h35.657v11.985Z" fill="#cb1516"/>
      <g id="グループ_1196" data-name="グループ 1196">
        <path id="パス_1271" data-name="パス 1271" d="M639.881,338.107c-9.8-6.34-20.128-15.114-27.8-29.713v19.834h13.639v4.128H612.085v14.967H601.91V332.356H588.271v-4.128H601.91V308.321c-7.446,15.262-17.547,23.666-27.722,29.86l-3.1-3.244c12.536-9.733,21.751-25.807,24.7-37.971H572.567v-4.054H601.91v-7.89a31.377,31.377,0,0,0-.366-6.562l10.4.148c.146,0,.44.367.44.885a3.994,3.994,0,0,1-.294,1.473v11.946H641.65v4.054H618.28a76.307,76.307,0,0,0,24.625,37.823Z" fill="#cb1516"/>
        <path id="パス_1272" data-name="パス 1272" d="M672.247,301.832v4.13h-6.563v8.11h8.848v4.054H646.514v-4.054h10.175v-8.11h-7.078v-4.13h7.078v-2.507c0-.664-.148-3.538-.22-4.2a58.4,58.4,0,0,1-9.439,8.7l-2.727-3.392c2.655-3.023,9.585-11.059,11.87-21.456h11.8c.886,4.278,2.433,9.512,9.585,17.549l-3.464,3.614a57.458,57.458,0,0,1-11.946-12.387,48.719,48.719,0,0,1-5.455,7.226l8.774.146a.614.614,0,0,1,.443.664,9.232,9.232,0,0,1-.222,1.4v4.644Zm0,21.013v21.161h-14.3v3.317h-9V322.845Zm-14.3,4.128v12.9h6.117v-12.9Zm41.509,3.17v17.18h-9.511v-17.18H685.3v17.18h-8.627V299.989h13.273v-7.077h-14.6v-4.13h14.6v-4.5a42.523,42.523,0,0,0-.222-5.823l9.437.22c.3,0,.516.3.516.813a8.153,8.153,0,0,1-.22,1.4v7.888h6.931a35.074,35.074,0,0,0-5.531-7.594l3.17-2.728a55.893,55.893,0,0,1,10.617,6.12l-6.267,4.2h6.71v4.13h-15.63v7.077h13.493V339.8c0,6.266-2.287,7-7.744,7h-3.684l-1.7-4.35a16.884,16.884,0,0,0,2.8.3c1.549,0,1.623-.662,1.623-2.065V330.143Zm-9.511-17.179v-8.847H685.3v8.847Zm0,13.05v-8.92H685.3v8.92Zm14.3-13.05v-8.847h-4.792v8.847Zm0,13.05v-8.92h-4.792v8.92Z" fill="#cb1516"/>
      </g>
      <path id="パス_1273" data-name="パス 1273" d="M298.588,347.514c-11.72,0-18.586-9.443-18.586-33.5a213.344,213.344,0,0,1,2.762-31.089h13.659c-1.863,11.143-3.284,21.776-3.284,32.764,0,10.278,2.239,17.587,7.465,17.587,5,0,10-3.8,14.48-7.309V341.5C311.948,343.781,305.156,347.514,298.588,347.514Zm33.066-7.87c0-21.013-2.462-36.469-12.689-56.721h14.778c7.466,16.141,11.571,30.379,11.571,56.721Z" fill="#cb1516"/>
      <path id="パス_1274" data-name="パス 1274" d="M400.8,345.6c-11.719,0-17.169-1.867-17.169-10.375v-3.957c0-2.388-.3-3.731-2.761-3.731-1.343,0-3.807,1.194-6.643,3.134-7.239,4.851-18.063,13.585-21.571,16.5V330.892c7.539-6.121,20.452-15.675,30.6-22.766H356.614V295.96H408.49v10.225c-5.225,3.284-14.033,8.732-17.69,11.122,4.554,0,6.344,2.24,6.344,6.867v2.687c0,4.7.523,5.824,5.6,5.824a78.422,78.422,0,0,0,15.078-2.017V343.73A110.5,110.5,0,0,1,400.8,345.6Z" fill="#cb1516"/>
      <rect id="長方形_2703" data-name="長方形 2703" width="48.091" height="11.315" transform="translate(358.813 279.553)" fill="#cb1516"/>
    </g>
    <path id="パス_1894" data-name="パス 1894" d="M29.333-28.741c-3.022,8.35-6.2,13.268-11.834,18.493A54.2,54.2,0,0,1,1.568-.156,21.133,21.133,0,0,1,6.127,5.992,60.739,60.739,0,0,0,19.4-2.563a57.769,57.769,0,0,0,8.453-8.709c4.1,7.223,9.682,12.7,17.673,17.366A21.429,21.429,0,0,1,50.234-.771a28.051,28.051,0,0,1-4.969-2.561,41.562,41.562,0,0,1-7.735-6.2,34.92,34.92,0,0,1-5.635-7.787,61.243,61.243,0,0,0,4.969-10.911c.82-2.305.82-2.305,1.486-3.842l-3.279-3.176a20.828,20.828,0,0,1-3.893.256H22.725c.768-1.793,1.178-2.715,1.178-2.715.461-1.076.82-2,1.076-2.51l-7.838-.973a21.653,21.653,0,0,1-2.152,6.66A37.471,37.471,0,0,1,2.541-20.083a21.511,21.511,0,0,1,5.276,5.276A49.024,49.024,0,0,0,19.7-28.741Zm32.273-9.938a47.183,47.183,0,0,1-6.4-.307v5.635a48.107,48.107,0,0,1,6.25-.256H74.311v1.844H63.041a41.708,41.708,0,0,1-4.969-.2v5.123a40.09,40.09,0,0,1,4.969-.2H92.6a40.623,40.623,0,0,1,4.969.2v-5.123a39.044,39.044,0,0,1-4.969.2H80.868v-1.844h13.37a49.008,49.008,0,0,1,6.3.256v-5.635a48.594,48.594,0,0,1-6.455.307H80.868a11.469,11.469,0,0,1,.307-2.971H74.055a14.111,14.111,0,0,1,.256,2.971Zm4.149,23a20.432,20.432,0,0,1,1.025,2.2h-6.25a34.6,34.6,0,0,1-6.1-.307v5.737A46.174,46.174,0,0,1,60.377-8.3H95.161a48.451,48.451,0,0,1,6.045.256v-5.737a33.542,33.542,0,0,1-6.1.307H88.245a21.475,21.475,0,0,0,1.178-2.2h.922c2.818,0,3.227,0,5.02.1a20.345,20.345,0,0,1-.154-3.33v-3.33a24.509,24.509,0,0,1,.154-3.33c-1.691.1-2.459.1-5.02.1h-25.2c-2.818,0-3.688,0-5.02-.1a19.381,19.381,0,0,1,.154,3.33v3.33a25.035,25.035,0,0,1-.154,3.33c1.588-.051,2.715-.1,4.815-.1Zm16.649,0a17.655,17.655,0,0,1-1.127,2.2H73.85a22.707,22.707,0,0,0-1.025-2.2ZM66.781-21.466H88.706v1.793H66.781ZM59.455,2A37.612,37.612,0,0,1,59.2,6.35h7.018V4.557H89.372V6.35H96.39A26.493,26.493,0,0,1,96.134,2V-2.717a38.467,38.467,0,0,1,.154-4.1,46.148,46.148,0,0,1-5.328.154H64.629A46.148,46.148,0,0,1,59.3-6.815c.1,1.383.154,2.049.154,3.893Zm6.762-4.2H89.372V-.1H66.217Zm63.624-12.141h-6.3a36.249,36.249,0,0,1-4.61-.2c.1,1.281.154,2.664.154,4.559V-.207a50.763,50.763,0,0,1-.307,6.455h6.864v-2.1h17.469v2.1h6.916a55.625,55.625,0,0,1-.307-6.813V-9.121a42.4,42.4,0,0,1,.256-5.43,35.738,35.738,0,0,1-4.61.2h-9.118v-4.662H146.8c1.947,0,3.842.1,5.379.256v-6.506a44.98,44.98,0,0,1-5.635.256h-10.3a32.187,32.187,0,0,1,.2-4.713h-6.813a40.115,40.115,0,0,1,.2,5.225Zm-4.2,6.1h17.469V-1.9H125.641Zm2.049-28.687H116.522c-2.459,0-4.508-.1-6.4-.256.154,1.793.2,3.688.2,7.735,0,17.571-1.025,24.077-4.713,30.275A29.7,29.7,0,0,1,110.99,6.2c4.662-7.787,5.994-15.88,5.994-36.986h29.609c2.408,0,4.969.1,6.711.256v-6.711a53.372,53.372,0,0,1-6.813.307H134.452v-1.691a11.567,11.567,0,0,1,.256-2.971h-7.274a11.924,11.924,0,0,1,.256,2.869Z" transform="translate(-6495.568 5877.65)" fill="#cb1516"/>
  </g>
</svg>
