<svg xmlns="http://www.w3.org/2000/svg" width="218" height="104" viewBox="0 0 218 104">
  <g id="グループ_1582" data-name="グループ 1582" transform="translate(0.416)">
    <rect id="長方形_2847" data-name="長方形 2847" width="218" height="104" transform="translate(-0.416)" fill="#5bc6c7"/>
    <path id="shop" d="M15.177,18.153H6.1V10.589H3.074v12.1A1.511,1.511,0,0,0,4.587,24.2h12.1A1.511,1.511,0,0,0,18.2,22.692v-12.1H15.177ZM30.049,6.722,26.017.671A1.521,1.521,0,0,0,24.754,0H5.6A1.507,1.507,0,0,0,4.341.671L.309,6.722A1.513,1.513,0,0,0,1.566,9.077H28.792A1.516,1.516,0,0,0,30.049,6.722Zm-5.8,16.726a.759.759,0,0,0,.756.756h1.513a.759.759,0,0,0,.756-.756V10.589H24.253Z" transform="translate(34.134 40.562)" fill="#fff"/>
    <path id="パス_2290" data-name="パス 2290" d="M11.95-58.915a28.216,28.216,0,0,1-4.105,3.408,31.09,31.09,0,0,1-5.823,3.233L.264-55.212a35.339,35.339,0,0,0,5.595-3.2,32.763,32.763,0,0,0,4.119-3.535H1.337V-65.14H5.671q-1.234-2.616-1.919-3.9L7.16-70.091q.872,1.6,2.576,4.951h2.12v-5H2.3V-73.3h9.553v-2.361h3.824V-73.3h9.834v3.153H20.845l3.327,1.02a36.733,36.733,0,0,1-2.388,3.985H26.4v3.193H17.477A29.685,29.685,0,0,0,27.5-55.574L25.245-52.3a26,26,0,0,1-5.863-3.381,22.163,22.163,0,0,1-3.716-3.3l.013,7.58H11.95Zm3.73-11.23v5h2.16a47.5,47.5,0,0,0,2.509-5Zm22.47,12.437q-2.321.872-6.856,2.106l-.671-3.327q1.409-.268,2.978-.644v-7.849H31.226v-2.8H33.6v-5.568h3.542v5.568h1.972v2.8H37.143v6.9q1.167-.349,2.026-.631l.054.872a20.527,20.527,0,0,0,2.536-2.764H39.223v-2.616H57.094v2.616H45.448q-.416.684-.765,1.181H56.342q0,3.327-.04,4.588a14.408,14.408,0,0,1-.382,2.75,3.419,3.419,0,0,1-1.254,2.133,4.054,4.054,0,0,1-2.388.644H49.7l-.416-2.858h1.838a1.8,1.8,0,0,0,.993-.275q.429-.275.624-1.55a19.882,19.882,0,0,0,.195-2.965h-.349a18.66,18.66,0,0,1-7.2,7.728l-1.972-1.838a21.639,21.639,0,0,0,5.742-5.89H47.568a20,20,0,0,1-3.649,4.159,21.364,21.364,0,0,1-4.387,3.126l-1.758-2.039A23.379,23.379,0,0,0,44.012-59.4H42.563a19.986,19.986,0,0,1-3.448,2.75Zm17.267-9.056H40.9V-75.5H55.417Zm-3.435-5.246V-73.27H44.308v1.261Zm0,3.059v-1.275H44.308v1.275ZM75.995-54.34a2.5,2.5,0,0,1-.986,1.885,3.3,3.3,0,0,1-2.234.865h-4.7l-.47-3.6H71.3a.926.926,0,0,0,.59-.228.664.664,0,0,0,.282-.523v-7.741H61.814v-3.086H72.279q-2.777-1.919-5.3-3.314l2-2.093H63.544v-2.938H83.253l1.919,2a46.523,46.523,0,0,1-8.278,5.34q.268.2.5.4l-.657.6h8.761l1.932,1.758a20.93,20.93,0,0,1-3.139,3.629,32.934,32.934,0,0,1-4.226,3.549L77.7-60.082a21.409,21.409,0,0,0,4.065-3.6H75.995ZM70.186-72.17q1.892,1.087,3.931,2.442,2.75-1.436,4.266-2.442Zm29.3,20.715H96.077V-61.96q-2.71.255-4.2.309L91.6-64.429q.751,0,2.08-.04.684-.832,1.7-2.187-1.8-1.986-3.891-4.065l1.986-2.106q.255.242.483.47a24.848,24.848,0,0,0,2.254-3.931l3.059,1.1a37.621,37.621,0,0,1-3.341,4.83l1.221,1.288A32.007,32.007,0,0,0,99.82-73.4l2.965,1.288a86.51,86.51,0,0,1-5.541,7.5q1.288-.08,2.858-.2-.537-1.6-.724-2l2.576-.765q.738,1.892,1.825,5.273l-2.75.657a5.63,5.63,0,0,0-.2-.872q-.443.067-1.342.188Zm8.077-.322-.443-3.3h3.461a1.481,1.481,0,0,0,1.529-1.154,16.638,16.638,0,0,0,.389-4.186l-.04-4.065v-5.541h-5.474a25.024,25.024,0,0,1-1.919,4.119l-2.831-1.288a48.523,48.523,0,0,0,1.784-4.843,31.886,31.886,0,0,0,.912-4.119l3.622.362a25.335,25.335,0,0,1-.671,3.046h8.09q.013.979.013,3.1,0,8.4-.094,10.72a15.887,15.887,0,0,1-.584,4.575,3.967,3.967,0,0,1-1.328,1.684,4.188,4.188,0,0,1-1.778.785Q111.747-51.8,107.561-51.777Zm2.777-7.835-3.381,1.181a61.6,61.6,0,0,0-2.7-7.124l3.059-1.181A47.778,47.778,0,0,1,110.339-59.612ZM95.5-60.927a40.253,40.253,0,0,1-.671,4.3,21.752,21.752,0,0,1-.979,3.6L91.327-53.6a40.065,40.065,0,0,0,1.315-7.5Zm8.077,5.715-2.75.376a55.983,55.983,0,0,1-.926-5.9l2.724-.282Z" transform="translate(67.308 116.546)" fill="#fff"/>
  </g>
</svg>
