<svg id="グループ_1580" data-name="グループ 1580" xmlns="http://www.w3.org/2000/svg" width="438" height="104" viewBox="0 0 438 104">
  <rect id="長方形_2844" data-name="長方形 2844" width="438" height="104" fill="#cb0011"/>
  <g id="グループ_1578" data-name="グループ 1578" transform="translate(86.357 29.047)">
    <path id="パス_2292" data-name="パス 2292" d="M37.8-83.759H33.726V-89.51H23.884v6.87H19.252v-6.87H9.813v5.751H5.827v-8.268H19.252v-1.433H8.117v-2.972H35.474v2.972H23.884v1.433H37.8ZM32-86.469h-6.5V-88.2H32Zm-14.316,0H11.421V-88.2h6.258ZM32-83.357h-6.5V-85.14H32Zm-14.316,0H11.421V-85.14h6.258Zm1.363,12.638h-6.9v1.4H7.418v-12.6H35.684v8.286l3.374.489V-68.9a3.34,3.34,0,0,1-.428,1.757,2.648,2.648,0,0,1-1.259,1.066,10.752,10.752,0,0,1-3.216.472q-2.386.114-5.375.114a56.157,56.157,0,0,1-6.721-.236,3.619,3.619,0,0,1-2.229-1.136,3.194,3.194,0,0,1-.787-2.176Zm4.982-6.8h7.01V-79.2h-7.01Zm-11.817,0h6.835V-79.2H12.208Zm6.835,2.22H12.208v1.713h6.835Zm11.992,0h-7.01v1.713h7.01Zm4.248,4.58H24.024v.577a.929.929,0,0,0,.839,1.014,27.6,27.6,0,0,0,3.828.157q1.573,0,3.409-.07t2.176-.14a1.252,1.252,0,0,0,.612-.323A2.182,2.182,0,0,0,35.282-70.719Zm36.968,3.583h-8.3v1.468H59.174V-80.246h6.45V-83.9H58.143v-4h7.482v-3.146q-3.461.35-6.153.385L58.7-94.457a69.809,69.809,0,0,0,16.694-2.6l2.115,3.723a34.528,34.528,0,0,1-6.992,1.7V-87.9h7.272v4H70.519v3.653H76.9v14.509h-4.65Zm-8.3-3.688h8.3v-5.8h-8.3Zm-7.062-22.41H45.959v-3.112H56.884Zm.857,4.964H44.753v-3.5H57.741Zm-1.031,4.6H45.994v-3.059H56.709Zm0,4.685H45.994v-3.077H56.709Zm.28,12.062H49.752v1.294H45.5V-77.379H56.989ZM52.776-70v-4.265H49.909V-70Zm53.941-1.363h-4.982l.017-6.87q-6.241,3.059-6.241,5.716,0,2.64,6.013,2.64l1.94-.017a88.646,88.646,0,0,0,11.887-.577l.245,4.37q-4.912.472-9.632.472-9.072,0-12.166-1.547a5.052,5.052,0,0,1-3.094-4.781q0-5.314,10.156-10.436a1.63,1.63,0,0,0-1.363-.577A10.013,10.013,0,0,0,95.4-81.8a25.381,25.381,0,0,0-5.533,3.863q-2.133,1.888-3.059,2.552l-3.042-3.286A32.337,32.337,0,0,0,92.96-88.741H85.5v-4.143h9.282a29.881,29.881,0,0,0,1.1-3.968l5.139.28q-.489,2.168-1,3.688h11.537v4.143H98.344q-.454.909-1.678,2.8a10.7,10.7,0,0,1,3.356-.577q3.566,0,5.139,2.2,2.272-.979,9.579-3.846L116.786-84q-3.444,1.171-10.278,3.671a21.332,21.332,0,0,1,.175,2.814Zm29.329-21.169q0,1.1-.087,2.657H140.8a6.291,6.291,0,0,1,4.825,1.967,7.1,7.1,0,0,1,1.835,5.043,36.125,36.125,0,0,1-1.8,12.516q-1.8,4.772-6.1,4.772-2.622,0-7.167-2.6L134-72.415a17.368,17.368,0,0,0,2.945,1.285,9.575,9.575,0,0,0,2.036.551,1.574,1.574,0,0,0,1.18-.524,6.223,6.223,0,0,0,1.04-2.115,19.082,19.082,0,0,0,.813-3.645,36.388,36.388,0,0,0,.271-4.711,9.382,9.382,0,0,0-.227-2.5,1.969,1.969,0,0,0-.752-1.075,2.3,2.3,0,0,0-1.329-.358h-4.37a36.355,36.355,0,0,1-9.195,20.47l-3.793-2.814a36.147,36.147,0,0,0,4.51-6.9,34.18,34.18,0,0,0,3.164-10.75h-6.328v-4.37h6.957v-6.73h5.122Zm21.763,14.579-5.017,1.294a55.311,55.311,0,0,0-2.447-7.219,38.5,38.5,0,0,0-2.491-4.492,25.961,25.961,0,0,0-2.508-3.444l4-2.5a36.908,36.908,0,0,1,5.384,7.831A31.05,31.05,0,0,1,157.809-77.956ZM178.922-64.9l-1.993-4.143q7.552-2.762,7.552-10.488v-5.384h-11.31v-4.265h11.118v-6.957h5.122v6.957h6.852v4.265h-6.7v5.559Q189.568-68.167,178.922-64.9ZM175.531-76.96a47.16,47.16,0,0,0-3.785,6.564,15.9,15.9,0,0,0-1.162,3.785h-3.863a38.141,38.141,0,0,1-2.36-13.338,64.125,64.125,0,0,1,2.22-15.732l4.964.752a77.822,77.822,0,0,0-2.054,8.915,41.535,41.535,0,0,0-.428,5.821,44.563,44.563,0,0,0,.3,5.524q1-1.591,3.059-4.72Zm48.435,6.4q4.265-1.678,4.265-5.349a4.758,4.758,0,0,0-2.106-4.1,8.944,8.944,0,0,0-5.305-1.495h-.437a13.711,13.711,0,0,0-3.278.472,20.655,20.655,0,0,0-3.531,1.224,19.939,19.939,0,0,0-2.779,1.5q-1.127.752-5.235,3.793l-2.8-3.514q14.282-9.789,18.267-12.848H206.241v-4.09h21.116l2.517,2.692q-3.758,2.5-11.2,7.621a14.8,14.8,0,0,1,3.6-.559q5.157,0,8.076,2.351a8.17,8.17,0,0,1,2.919,6.756,8.917,8.917,0,0,1-4.134,7.892Q225-65.457,218.25-65.457a14.461,14.461,0,0,1-7.071-1.468,4.671,4.671,0,0,1-2.613-4.3,4.6,4.6,0,0,1,2.229-3.854,8.3,8.3,0,0,1,4.868-1.565Q222.183-76.645,223.966-70.562Zm-4.51,1.154q-1.136-3.566-4.143-3.566a2.633,2.633,0,0,0-1.556.481,1.467,1.467,0,0,0-.682,1.25q0,1.923,4.51,1.923Q218.582-69.321,219.456-69.408Z" transform="translate(29.776 97.062)" fill="#fff"/>
    <path id="phone-solid" d="M26.993,20.429l-1.228,5.323a1.641,1.641,0,0,1-1.608,1.279A24.184,24.184,0,0,1,0,2.872,1.64,1.64,0,0,1,1.279,1.264L6.6.037A1.657,1.657,0,0,1,8.491.993l2.456,5.729a1.653,1.653,0,0,1-.474,1.925L7.63,10.93a18.463,18.463,0,0,0,8.422,8.422l2.328-2.841a1.643,1.643,0,0,1,1.926-.474l5.729,2.456A1.8,1.8,0,0,1,26.993,20.429Z" transform="translate(0 5.282)" fill="#fff"/>
    <path id="パス_2293" data-name="パス 2293" d="M4.544-27.887q-.494-1.222-.763-1.8-.538.009-.841.009H2.7l-.355-1.9a91.5,91.5,0,0,0,13.759-.91l.867,1.942q-.451.087-1.569.2l1.023.295q-.659,1.162-1.37,2.167h2.714v3.927H15.693v-2.219H3.954v2.219H1.9v-3.927Zm6.849,0h1.188q.72-1.222,1.24-2.324-1.491.113-3.3.225ZM6.208-29.768q.572,1.257.806,1.881H8.974l-.789-1.968Zm9.45,5.471a11.5,11.5,0,0,1-3.52,4.066,29.507,29.507,0,0,0,5.791,1.257L16.9-16.807A23.271,23.271,0,0,1,9.884-18.87a24.558,24.558,0,0,1-7.508,2.046l-.624-2.029A23.706,23.706,0,0,0,7.6-20.223a9.514,9.514,0,0,1-2.61-2.835l.763-.338H4.414v-1.847h10.5Zm-5.9,3.008A8.782,8.782,0,0,0,12.225-23.4H7.257A8.16,8.16,0,0,0,9.763-21.289Zm14.7,4.638H22.1v-7.43q-.486.772-1.266,1.8L19.33-23.63a23.943,23.943,0,0,0,2.15-3.7,23.96,23.96,0,0,0,1.847-5.12l2.393.407A20.859,20.859,0,0,1,24.072-27.5h.39Zm10.1-2.037a1.614,1.614,0,0,1-.633,1.222,2.167,2.167,0,0,1-1.474.555H29.413l-.295-2.332h2.41a.627.627,0,0,0,.386-.143.415.415,0,0,0,.186-.334v-7.725H25.19v-2.081H32.1V-32.4h2.462v2.87h2.029v2.081H34.562ZM30.748-21.8l-2.254,1.118a47.575,47.575,0,0,0-2.662-4.9l2.089-1.084A45.365,45.365,0,0,1,30.748-21.8Zm18.41,2.3L47.1-18.428q-.971-1.491-2.185-3.1l1.587-.884H44.7v-1.829h6.06V-25.6H44.493v-1.916h3.936v-1.422H45.022v-1.847h3.407v-1.743h2.419l-.009,1.743h3.381v1.847H50.84l-.009,1.422h4.014V-25.6H53.12v1.352h1.37v1.829H53.12v3.6a1.757,1.757,0,0,1-.616,1.431,2.538,2.538,0,0,1-1.673.512H48.611l-.286-2.167h1.881q.555,0,.555-.52v-2.852H46.947A21.8,21.8,0,0,1,49.158-19.5ZM44.1-19.685H40.835v1.1h-2.15V-31.745H44.1Zm-2.1-6.962v-3.442h-1.17v3.442Zm0,5.315v-3.823h-1.17v3.823Zm30.4,2.87a1.4,1.4,0,0,1-.568,1.131,2.115,2.115,0,0,1-1.366.455H68.729L68.5-18.853h1.084A.586.586,0,0,0,69.96-19a.439.439,0,0,0,.173-.351v-6.641H65.27V-32.17h7.135ZM67.429-29.647h2.7v-1.1h-2.7Zm2.7,1.17h-2.7v1.118h2.7ZM63.9-25.988H59.192v9.268H56.9V-32.17h7Zm-2.133-3.659v-1.1H59.192v1.1Zm0,2.289v-1.118H59.192v1.118Zm1.24,9.5v.39H60.788v-7.595h7.465v7.2Zm2.965-4.491v-1.188H63.007v1.188ZM63.007-19.6h2.965v-1.326H63.007ZM76-17.648v-2.228h.269a4.8,4.8,0,0,0,1.994.381q3.563,0,3.962-3.728a6.011,6.011,0,0,1-3.086,1.032,4.373,4.373,0,0,1-3.1-1.092,4.01,4.01,0,0,1-1.179-3.1,4.373,4.373,0,0,1,1.409-3.36,5.165,5.165,0,0,1,3.654-1.3A4.863,4.863,0,0,1,83.784-29.5a6.646,6.646,0,0,1,1.353,4.513,8,8,0,0,1-1.79,5.592,6.675,6.675,0,0,1-5.189,1.959A8.769,8.769,0,0,1,76-17.648Zm6.242-6.971q0-.087.017-.39t.009-.442q0-3.641-2.358-3.641a1.966,1.966,0,0,0-1.556.681,2.773,2.773,0,0,0-.594,1.886q0,2.384,2.514,2.384A4.693,4.693,0,0,0,82.241-24.618Zm9.48.017H88.764v-3.156h2.956Zm0,6.884H88.764v-3.156h2.956Zm3.723-.546v-2.462h.277a7.554,7.554,0,0,0,3.719,1.136,3.551,3.551,0,0,0,2.141-.568,1.932,1.932,0,0,0,.772-1.66,1.6,1.6,0,0,0-.6-1.339,4.423,4.423,0,0,0-2.493-.473H98.5V-25.6h.72q2.913,0,2.913-1.777a1.249,1.249,0,0,0-.624-1.131,3.4,3.4,0,0,0-1.777-.386,8.027,8.027,0,0,0-3.641,1.11h-.26v-2.436a12.082,12.082,0,0,1,4.24-.824,6.243,6.243,0,0,1,3.646.884,2.754,2.754,0,0,1,1.235,2.35,2.89,2.89,0,0,1-.685,1.912,3.33,3.33,0,0,1-1.829,1.1v.121A3.709,3.709,0,0,1,104.5-23.66a2.782,2.782,0,0,1,.763,2.024,3.685,3.685,0,0,1-1.457,3.052,6.219,6.219,0,0,1-3.945,1.144A11.56,11.56,0,0,1,95.444-18.263Zm17.474.824a4.616,4.616,0,0,1-3.906-1.617q-1.244-1.617-1.244-5.189,0-3.537,1.248-5.167a4.6,4.6,0,0,1,3.9-1.63,4.607,4.607,0,0,1,3.9,1.626q1.248,1.626,1.248,5.163,0,3.6-1.24,5.206A4.626,4.626,0,0,1,112.917-17.44Zm0-11.583a1.789,1.789,0,0,0-1.738,1.14,9.314,9.314,0,0,0-.525,3.646,9.113,9.113,0,0,0,.538,3.641,1.8,1.8,0,0,0,1.725,1.144,1.8,1.8,0,0,0,1.725-1.162,9.19,9.19,0,0,0,.538-3.641,9.249,9.249,0,0,0-.525-3.633A1.789,1.789,0,0,0,112.917-29.023Zm23.6,3.459a9.759,9.759,0,0,1-1.509,2.575,3.968,3.968,0,0,1-2.982,1.526q-1.717,0-4.448-2.081a13.342,13.342,0,0,0-1.353-.945,3.237,3.237,0,0,0-1.569-.433A2.313,2.313,0,0,0,122.97-23.9a6.093,6.093,0,0,0-1.023,1.795l-1.847-.728a9.789,9.789,0,0,1,1.474-2.558,4.027,4.027,0,0,1,3.052-1.526,4.792,4.792,0,0,1,2.3.624,20.756,20.756,0,0,1,1.985,1.361,6.023,6.023,0,0,0,3.086,1.474q1.032,0,2.037-1.647.243-.381.642-1.188Zm11.743,7.846h-8.314v-1.907h2.8v-7.56h-2.8v-1.751A4.646,4.646,0,0,0,142.3-29.4a1.828,1.828,0,0,0,.8-1.409h2.419v11.184h2.74Zm5.318-6.684v-.052a3.316,3.316,0,0,1-2.167-3.1,3.012,3.012,0,0,1,1.353-2.532,5.885,5.885,0,0,1,3.555-.988,6.214,6.214,0,0,1,3.572.906,2.79,2.79,0,0,1,1.318,2.406q0,1.959-2.3,2.965v.052q2.636,1.032,2.636,3.39a3.405,3.405,0,0,1-1.444,2.844,6.154,6.154,0,0,1-3.81,1.092,6.286,6.286,0,0,1-3.836-1.045,3.289,3.289,0,0,1-1.4-2.77Q151.059-23.361,153.582-24.4Zm4.838-3.1a1.448,1.448,0,0,0-.581-1.205,2.4,2.4,0,0,0-1.517-.451,2.532,2.532,0,0,0-1.474.407,1.251,1.251,0,0,0-.59,1.075,1.462,1.462,0,0,0,.633,1.162,8.416,8.416,0,0,0,2.523,1.075A2.676,2.676,0,0,0,158.42-27.5Zm-3.3,3.719a2.694,2.694,0,0,0-1.222,2.219,2.027,2.027,0,0,0,.711,1.617,2.694,2.694,0,0,0,1.821.611,2.572,2.572,0,0,0,1.613-.5,1.61,1.61,0,0,0,.65-1.348,1.9,1.9,0,0,0-.152-.793,1.475,1.475,0,0,0-.581-.607,5.922,5.922,0,0,0-.785-.429Q156.816-23.162,155.116-23.778Zm12.792-.824h-2.956v-3.156h2.956Zm0,6.884h-2.956v-3.156h2.956Zm8.648.277a4.616,4.616,0,0,1-3.906-1.617q-1.244-1.617-1.244-5.189,0-3.537,1.248-5.167a4.6,4.6,0,0,1,3.9-1.63,4.607,4.607,0,0,1,3.9,1.626q1.248,1.626,1.248,5.163,0,3.6-1.24,5.206A4.626,4.626,0,0,1,176.556-17.44Zm0-11.583a1.789,1.789,0,0,0-1.738,1.14,9.314,9.314,0,0,0-.525,3.646,9.113,9.113,0,0,0,.538,3.641,1.8,1.8,0,0,0,1.725,1.144,1.8,1.8,0,0,0,1.725-1.162,9.19,9.19,0,0,0,.538-3.641,9.25,9.25,0,0,0-.525-3.633A1.789,1.789,0,0,0,176.556-29.023ZM189.1-17.44a4.616,4.616,0,0,1-3.906-1.617q-1.244-1.617-1.244-5.189,0-3.537,1.248-5.167a4.6,4.6,0,0,1,3.9-1.63,4.607,4.607,0,0,1,3.9,1.626q1.248,1.626,1.248,5.163,0,3.6-1.24,5.206A4.626,4.626,0,0,1,189.1-17.44Zm0-11.583a1.789,1.789,0,0,0-1.738,1.14,9.313,9.313,0,0,0-.525,3.646,9.114,9.114,0,0,0,.538,3.641,1.8,1.8,0,0,0,1.725,1.144,1.8,1.8,0,0,0,1.725-1.162,9.19,9.19,0,0,0,.538-3.641,9.249,9.249,0,0,0-.525-3.633A1.789,1.789,0,0,0,189.1-29.023Z" transform="translate(51.319 70.005)" fill="#fff"/>
  </g>
</svg>
