<svg xmlns="http://www.w3.org/2000/svg" viewBox="0 0 53.23 41.78"><defs><style>.cls-1{fill:#fff;}</style></defs><title>mail</title><g id="レイヤー_2" data-name="レイヤー 2"><g id="デザイン"><path class="cls-1" d="M53.09,6a7.32,7.32,0,0,0-1.52-3.23c-.16-.2-.33-.38-.5-.56A7.39,7.39,0,0,0,45.85,0H7.38A7.4,7.4,0,0,0,2.16,2.16c-.17.18-.34.36-.5.56A7.32,7.32,0,0,0,.14,6,7.54,7.54,0,0,0,0,7.38v27a7.43,7.43,0,0,0,2.16,5.22c.17.16.33.31.51.46a7.38,7.38,0,0,0,4.71,1.7H45.85a7.36,7.36,0,0,0,4.71-1.7c.18-.15.34-.3.51-.46a7.56,7.56,0,0,0,1.56-2.29h0a7.33,7.33,0,0,0,.6-2.92v-27A7.54,7.54,0,0,0,53.09,6ZM4.84,4.84A3.53,3.53,0,0,1,7.38,3.78H45.85a3.53,3.53,0,0,1,2.54,1.06,2.91,2.91,0,0,1,.33.37L28.56,22.78a3,3,0,0,1-3.89,0L4.52,5.21A2.24,2.24,0,0,1,4.84,4.84ZM3.78,34.4V9.11L18.37,21.84,3.78,34.55ZM45.85,38H7.38a3.55,3.55,0,0,1-1.78-.47L21,24.12l1.44,1.25a6.4,6.4,0,0,0,8.4,0l1.43-1.25L47.63,37.53A3.55,3.55,0,0,1,45.85,38Zm3.6-3.6a.71.71,0,0,1,0,.15L34.86,21.85,49.45,9.12Z"/></g></g></svg>