<svg xmlns="http://www.w3.org/2000/svg" width="575.99" height="448.002" viewBox="0 0 575.99 448.002">
  <path id="book-open-solid" d="M542.22,32.05c-54.8,3.11-163.72,14.43-230.96,55.59a15.374,15.374,0,0,0-7.27,13.17V464.68c0,11.55,12.63,18.85,23.28,13.49,69.18-34.82,169.23-44.32,218.7-46.92,16.89-.89,30.02-14.43,30.02-30.66V62.75C576,45.04,560.64,31.01,542.22,32.05ZM264.73,87.64C197.5,46.48,88.58,35.17,33.78,32.05,15.36,31.01,0,45.04,0,62.75V400.6c0,16.24,13.13,29.78,30.02,30.66,49.49,2.6,149.59,12.11,218.77,46.95,10.62,5.35,23.21-1.94,23.21-13.46V100.63A15.055,15.055,0,0,0,264.73,87.64Z" transform="translate(0 -31.996)" fill="#fff"/>
</svg>
