<svg xmlns="http://www.w3.org/2000/svg" width="40" height="40" viewBox="0 0 40 40"><path d="M38.859,28.272l-8.75-3.75a1.875,1.875,0,0,0-2.188.539L24.046,29.8A29.294,29.294,0,0,1,13.878,21.81,28.321,28.321,0,0,1,10.2,15.952l4.734-3.875a1.87,1.87,0,0,0,.539-2.188l-3.75-8.75A1.888,1.888,0,0,0,9.578.054L1.453,1.929A1.875,1.875,0,0,0,0,3.756C0,21.23,29.044,39.29,29.044,39.29a64.256,64.256,0,0,0,7.206.716,1.875,1.875,0,0,0,1.828-1.453l1.875-8.125a1.9,1.9,0,0,0-1.095-2.156Z" transform="translate(0 -0.006)" fill="#e45560"/></svg>