<svg xmlns="http://www.w3.org/2000/svg" width="169.836" height="304.656" viewBox="0 0 169.836 304.656">
  <g id="グループ_4785" data-name="グループ 4785" transform="translate(-112.172 -714.367)">
    <path id="パス_37" data-name="パス 37" d="M-81.328-39.609V-45q7.617-.742,10.625-2.48t4.492-8.223h5.547V0h-7.5V-39.609Zm46.719,25.352q.7,6.016,5.586,8.32a13.481,13.481,0,0,0,5.781,1.172q6.25,0,9.258-3.984a14.31,14.31,0,0,0,3.008-8.828q0-5.859-3.574-9.062a12.406,12.406,0,0,0-8.574-3.2,12.914,12.914,0,0,0-6.23,1.406,13.347,13.347,0,0,0-4.434,3.906l-6.094-.352L-35.625-55H-6.562v6.8H-30.352l-2.383,15.547a17.47,17.47,0,0,1,3.711-2.227A18.837,18.837,0,0,1-21.8-36.172,18.489,18.489,0,0,1-8.75-31.211,16.407,16.407,0,0,1-3.4-18.633,21.583,21.583,0,0,1-8.3-4.648q-4.9,6.055-15.645,6.055a19.926,19.926,0,0,1-12.09-3.848q-5.254-3.848-5.879-11.816ZM2.5,0A32.624,32.624,0,0,1,5.488-12.578q2.6-5.352,10.137-9.727l7.5-4.336a35.31,35.31,0,0,0,7.07-5,10.272,10.272,0,0,0,3.2-7.422,10.36,10.36,0,0,0-2.93-7.754,10.68,10.68,0,0,0-7.812-2.871q-7.227,0-10,5.469a19.579,19.579,0,0,0-1.641,8.125H3.867q.117-7.3,2.7-11.914,4.57-8.125,16.133-8.125,9.609,0,14.043,5.2a17.381,17.381,0,0,1,4.434,11.563,15.718,15.718,0,0,1-4.727,11.484q-2.734,2.773-9.8,6.719L21.289-18.2a34.663,34.663,0,0,0-6.016,4.023,14.656,14.656,0,0,0-4.922,7.539H40.9V0ZM65.273,1.523q-9.922,0-14.395-5.449a20.223,20.223,0,0,1-4.473-13.262H53.75q.469,5.43,2.031,7.891,2.734,4.414,9.883,4.414A12.957,12.957,0,0,0,74.57-7.852a9.748,9.748,0,0,0,3.359-7.656q0-5.781-3.535-8.086T64.57-25.9q-.7,0-1.426.02t-1.465.059v-6.211q1.094.117,1.836.156t1.6.039a14.679,14.679,0,0,0,6.484-1.25q4.453-2.187,4.453-7.812a7.629,7.629,0,0,0-2.969-6.445,11.077,11.077,0,0,0-6.914-2.266q-7.031,0-9.727,4.688a16.248,16.248,0,0,0-1.68,7.344H47.813a21.1,21.1,0,0,1,2.5-10.625q4.3-7.812,15.117-7.812,8.555,0,13.242,3.809t4.688,11.035a12.315,12.315,0,0,1-2.773,8.359,11.65,11.65,0,0,1-4.453,3.125,12.137,12.137,0,0,1,6.895,4.668,14.125,14.125,0,0,1,2.48,8.457A17.237,17.237,0,0,1,80.234-3.516Q74.961,1.523,65.273,1.523Z" transform="translate(195 772)" fill="#333" stroke="#333" stroke-width="3"/>
    <path id="パス_38" data-name="パス 38" d="M-56.133-39.609V-45q7.617-.742,10.625-2.48t4.492-8.223h5.547V0h-7.5V-39.609Zm38.594,0V-45q7.617-.742,10.625-2.48T-2.422-55.7H3.125V0h-7.5V-39.609ZM40.078,1.523q-9.922,0-14.395-5.449a20.223,20.223,0,0,1-4.473-13.262h7.344q.469,5.43,2.031,7.891,2.734,4.414,9.883,4.414a12.957,12.957,0,0,0,8.906-2.969,9.748,9.748,0,0,0,3.359-7.656q0-5.781-3.535-8.086t-9.824-2.3q-.7,0-1.426.02t-1.465.059v-6.211q1.094.117,1.836.156t1.6.039a14.679,14.679,0,0,0,6.484-1.25q4.453-2.187,4.453-7.812a7.629,7.629,0,0,0-2.969-6.445,11.077,11.077,0,0,0-6.914-2.266q-7.031,0-9.727,4.688a16.248,16.248,0,0,0-1.68,7.344H22.617a21.1,21.1,0,0,1,2.5-10.625q4.3-7.812,15.117-7.812,8.555,0,13.242,3.809t4.688,11.035a12.315,12.315,0,0,1-2.773,8.359,11.649,11.649,0,0,1-4.453,3.125,12.137,12.137,0,0,1,6.895,4.668,14.125,14.125,0,0,1,2.48,8.457A17.237,17.237,0,0,1,55.039-3.516Q49.766,1.523,40.078,1.523Z" transform="translate(195 1016)" fill="#333" stroke="#333" stroke-width="3"/>
    <g id="長方形_161" data-name="長方形 161" transform="translate(189.404 822)" fill="#333" stroke="#333" stroke-width="1">
      <rect width="10" height="74.616" stroke="none"/>
      <rect x="0.5" y="0.5" width="9" height="73.616" fill="none"/>
    </g>
    <g id="多角形_3" data-name="多角形 3" transform="translate(202.998 866.371) rotate(60)" fill="#333">
      <path d="M 29.15226745605469 26.63355827331543 L 0.8477343320846558 26.63355827331543 L 15.00000095367432 1.033466458320618 L 29.15226745605469 26.63355827331543 Z" stroke="none"/>
      <path d="M 15.00000095367432 2.066905975341797 L 1.695451736450195 26.13355827331543 L 28.30455017089844 26.13355827331543 L 15.00000095367432 2.066905975341797 M 15.00000095367432 -1.9073486328125e-06 L 30 27.13355827331543 L 1.9073486328125e-06 27.13355827331543 L 15.00000095367432 -1.9073486328125e-06 Z" stroke="none" fill="#333"/>
    </g>
  </g>
</svg>
